<svg xmlns="http://www.w3.org/2000/svg" xmlns:xlink="http://www.w3.org/1999/xlink" width="500" zoomAndPan="magnify" viewBox="0 0 375 374.999991" height="500" preserveAspectRatio="xMidYMid meet" version="1.0"><defs><g/><clipPath id="22325351b3"><path d="M 76 131.191406 L 146 131.191406 L 146 217 L 76 217 Z M 76 131.191406 " clip-rule="nonzero"/></clipPath><clipPath id="3083400597"><path d="M 53.199219 153 L 170.199219 153 L 170.199219 243.691406 L 53.199219 243.691406 Z M 53.199219 153 " clip-rule="nonzero"/></clipPath></defs><g clip-path="url(#22325351b3)"><path fill="#1089b8" d="M 145.445312 188.410156 C 138.03125 167.363281 120.441406 142.949219 112.554688 131.214844 C 102.417969 146.292969 76.257812 182.320312 76.257812 205.230469 L 76.257812 207.519531 C 76.257812 210.363281 76.609375 213.132812 77.261719 215.804688 C 78.355469 216.035156 79.453125 216.203125 80.527344 216.324219 C 78.257812 207.0625 79.804688 195.996094 85.167969 183.121094 C 81.8125 196.035156 80.71875 207.152344 81.875 216.457031 C 82.554688 216.515625 83.230469 216.554688 83.871094 216.574219 C 95.675781 217.015625 108.484375 213.234375 119.015625 208.140625 C 128.597656 203.507812 138.484375 196.734375 145.4375 188.390625 Z M 145.445312 188.410156 " fill-opacity="1" fill-rule="evenodd"/></g><g clip-path="url(#3083400597)"><path fill="#00afef" d="M 148.84375 206.941406 C 148.492188 207.230469 148.128906 207.519531 147.769531 207.8125 C 148.128906 207.519531 148.492188 207.230469 148.84375 206.941406 Z M 147.726562 207.851562 C 147.367188 208.140625 146.992188 208.429688 146.621094 208.722656 C 146.992188 208.429688 147.367188 208.140625 147.726562 207.851562 Z M 146.601562 208.730469 C 146.230469 209.023438 145.847656 209.3125 145.46875 209.601562 C 145.847656 209.3125 146.230469 209.023438 146.601562 208.730469 Z M 145.445312 209.613281 C 145.066406 209.902344 144.683594 210.183594 144.292969 210.472656 C 144.683594 210.191406 145.066406 209.902344 145.445312 209.613281 Z M 144.261719 210.492188 C 143.878906 210.773438 143.488281 211.050781 143.097656 211.332031 C 143.488281 211.050781 143.878906 210.773438 144.261719 210.492188 Z M 143.074219 211.351562 C 142.683594 211.632812 142.28125 211.914062 141.890625 212.191406 C 142.292969 211.914062 142.683594 211.632812 143.074219 211.351562 Z M 141.832031 212.222656 C 141.027344 212.785156 140.203125 213.332031 139.367188 213.875 C 140.203125 213.332031 141.027344 212.773438 141.832031 212.222656 Z M 139.367188 213.875 L 139.328125 213.902344 C 138.90625 214.175781 138.496094 214.445312 138.0625 214.714844 C 137.640625 214.984375 137.21875 215.246094 136.785156 215.515625 C 137.21875 215.253906 137.640625 214.984375 138.0625 214.714844 Z M 136.726562 215.554688 C 136.292969 215.816406 135.871094 216.085938 135.429688 216.335938 C 135.863281 216.074219 136.292969 215.816406 136.726562 215.554688 Z M 135.421875 216.34375 C 134.988281 216.605469 134.546875 216.867188 134.105469 217.125 C 134.546875 216.867188 134.988281 216.605469 135.421875 216.34375 Z M 134.0625 217.144531 C 133.621094 217.40625 133.179688 217.65625 132.726562 217.914062 C 133.179688 217.664062 133.621094 217.40625 134.0625 217.144531 Z M 132.699219 217.925781 C 132.246094 218.175781 131.792969 218.425781 131.339844 218.675781 C 131.792969 218.425781 132.246094 218.175781 132.699219 217.925781 Z M 131.320312 218.695312 C 130.859375 218.945312 130.40625 219.195312 129.933594 219.445312 C 130.398438 219.195312 130.859375 218.957031 131.320312 218.695312 Z M 129.914062 219.457031 C 129.464844 219.695312 129 219.9375 128.539062 220.175781 C 129 219.9375 129.464844 219.695312 129.914062 219.457031 Z M 128.488281 220.207031 C 128.027344 220.445312 127.5625 220.675781 127.101562 220.90625 C 127.5625 220.675781 128.035156 220.4375 128.488281 220.207031 Z M 127.03125 220.945312 C 126.558594 221.1875 126.085938 221.417969 125.605469 221.648438 C 125.132812 221.878906 124.660156 222.097656 124.1875 222.316406 C 124.660156 222.097656 125.132812 221.867188 125.605469 221.648438 C 126.085938 221.417969 126.558594 221.1875 127.03125 220.945312 Z M 124.058594 222.378906 C 123.617188 222.589844 123.175781 222.789062 122.730469 222.988281 C 123.175781 222.789062 123.617188 222.589844 124.058594 222.378906 Z M 122.601562 223.046875 C 122.140625 223.257812 121.675781 223.457031 121.214844 223.660156 C 121.675781 223.457031 122.140625 223.25 122.601562 223.046875 Z M 121.175781 223.679688 C 120.703125 223.886719 120.230469 224.089844 119.75 224.289062 C 120.21875 224.089844 120.691406 223.886719 121.175781 223.679688 Z M 119.667969 224.328125 C 119.214844 224.519531 118.773438 224.699219 118.320312 224.890625 C 118.773438 224.710938 119.214844 224.519531 119.667969 224.328125 Z M 118.191406 224.9375 C 117.738281 225.121094 117.296875 225.300781 116.84375 225.480469 C 117.296875 225.300781 117.738281 225.121094 118.191406 224.9375 Z M 116.765625 225.507812 C 116.300781 225.691406 115.832031 225.871094 115.367188 226.050781 C 115.832031 225.871094 116.300781 225.691406 116.765625 225.507812 Z M 115.269531 226.078125 C 114.824219 226.25 114.382812 226.410156 113.941406 226.570312 C 114.382812 226.410156 114.824219 226.25 115.269531 226.078125 Z M 113.800781 226.621094 C 113.359375 226.78125 112.925781 226.929688 112.484375 227.089844 C 112.917969 226.941406 113.359375 226.78125 113.800781 226.621094 Z M 112.375 227.128906 C 111.910156 227.289062 111.449219 227.449219 110.988281 227.601562 C 111.449219 227.449219 111.910156 227.289062 112.375 227.128906 Z M 110.925781 227.621094 C 110.484375 227.769531 110.035156 227.910156 109.589844 228.0625 C 110.035156 227.921875 110.484375 227.769531 110.925781 227.621094 Z M 109.441406 228.101562 C 109.007812 228.242188 108.578125 228.371094 108.144531 228.5 C 108.578125 228.371094 109.007812 228.230469 109.441406 228.101562 Z M 108.054688 228.53125 C 107.59375 228.671875 107.140625 228.8125 106.679688 228.941406 C 107.140625 228.8125 107.59375 228.671875 108.054688 228.53125 Z M 106.636719 228.949219 C 106.195312 229.082031 105.753906 229.199219 105.300781 229.332031 C 105.742188 229.210938 106.1875 229.082031 106.636719 228.949219 Z M 105.140625 229.371094 C 104.71875 229.480469 104.308594 229.601562 103.886719 229.703125 C 104.296875 229.589844 104.71875 229.480469 105.140625 229.371094 Z M 103.753906 229.742188 C 103.3125 229.851562 102.878906 229.960938 102.449219 230.070312 C 102.878906 229.960938 103.324219 229.851562 103.753906 229.742188 Z M 102.386719 230.089844 C 101.945312 230.203125 101.503906 230.300781 101.050781 230.410156 C 101.492188 230.3125 101.9375 230.203125 102.386719 230.089844 Z M 100.929688 230.441406 C 100.507812 230.542969 100.085938 230.632812 99.664062 230.722656 C 100.085938 230.632812 100.507812 230.542969 100.929688 230.441406 Z M 99.554688 230.75 C 99.125 230.84375 98.699219 230.933594 98.269531 231.023438 C 98.691406 230.933594 99.125 230.851562 99.554688 230.75 Z M 98.199219 231.03125 C 97.757812 231.121094 97.324219 231.203125 96.894531 231.28125 C 97.324219 231.203125 97.765625 231.121094 98.199219 231.03125 Z M 96.78125 231.300781 C 96.371094 231.382812 95.96875 231.453125 95.566406 231.523438 C 95.96875 231.453125 96.378906 231.382812 96.78125 231.300781 Z M 95.414062 231.542969 C 95.003906 231.613281 94.582031 231.683594 94.171875 231.742188 C 94.582031 231.683594 94.992188 231.613281 95.414062 231.542969 Z M 94.109375 231.753906 C 93.679688 231.824219 93.257812 231.882812 92.824219 231.941406 C 93.246094 231.882812 93.679688 231.824219 94.109375 231.753906 Z M 92.734375 231.953125 C 92.332031 232.011719 91.929688 232.0625 91.539062 232.113281 C 91.941406 232.0625 92.332031 232.011719 92.734375 231.953125 Z M 91.398438 232.121094 C 90.996094 232.171875 90.605469 232.222656 90.203125 232.261719 C 90.59375 232.222656 90.996094 232.171875 91.398438 232.121094 Z M 90.121094 232.273438 C 89.699219 232.324219 89.289062 232.363281 88.867188 232.394531 C 89.277344 232.351562 89.699219 232.3125 90.121094 232.273438 Z M 88.816406 232.402344 C 88.414062 232.441406 88.011719 232.472656 87.609375 232.503906 C 88.011719 232.472656 88.414062 232.441406 88.816406 232.402344 Z M 87.507812 232.511719 C 87.226562 232.53125 86.945312 232.550781 86.675781 232.574219 C 89.75 235.714844 93.375 238.324219 97.375 240.226562 C 102.027344 242.4375 107.191406 243.679688 112.566406 243.679688 C 118.804688 243.679688 124.742188 242.007812 129.945312 239.105469 C 141.117188 232.863281 148.863281 220.90625 148.863281 207.53125 L 148.863281 206.941406 C 165.660156 193.132812 174.050781 177.007812 168.535156 165.679688 C 164.523438 157.445312 153.945312 153.386719 140.273438 153.554688 C 147.699219 155.007812 153.324219 158.449219 155.945312 163.820312 C 162.695312 177.667969 146.953125 199.148438 120.8125 211.773438 C 94.664062 224.410156 67.988281 223.417969 61.238281 209.570312 C 58.617188 204.199219 59.390625 197.675781 62.835938 190.964844 C 54.234375 201.546875 50.890625 212.332031 54.910156 220.566406 C 59.339844 229.660156 71.765625 233.664062 87.519531 232.503906 Z M 87.507812 232.511719 " fill-opacity="1" fill-rule="evenodd"/></g><path fill="#1089b8" d="M 86.664062 232.574219 C 113.226562 231.390625 133.894531 224.230469 148.671875 211.09375 C 148.792969 209.921875 148.851562 208.730469 148.851562 207.53125 L 148.851562 206.941406 C 142.28125 212.34375 134.414062 217.386719 125.59375 221.648438 C 112.011719 228.210938 98.378906 231.84375 86.664062 232.574219 Z M 86.664062 232.574219 " fill-opacity="1" fill-rule="evenodd"/><g fill="#545454" fill-opacity="1"><g transform="translate(197.542488, 189.012827)"><g><path d="M 24.671875 -26.875 C 24.671875 -26.363281 24.414062 -26.109375 23.90625 -26.109375 L 9.375 -26.109375 C 9.195312 -26.109375 9.109375 -26.019531 9.109375 -25.84375 L 9.109375 -18.9375 C 9.109375 -18.757812 9.195312 -18.671875 9.375 -18.671875 L 18.796875 -18.671875 C 19.316406 -18.671875 19.578125 -18.414062 19.578125 -17.90625 L 19.578125 -13.984375 C 19.578125 -13.472656 19.316406 -13.21875 18.796875 -13.21875 L 9.375 -13.21875 C 9.195312 -13.21875 9.109375 -13.125 9.109375 -12.9375 L 9.109375 -5.734375 C 9.109375 -5.546875 9.195312 -5.453125 9.375 -5.453125 L 23.90625 -5.453125 C 24.414062 -5.453125 24.671875 -5.195312 24.671875 -4.6875 L 24.671875 -0.765625 C 24.671875 -0.253906 24.414062 0 23.90625 0 L 3.515625 0 C 3.003906 0 2.75 -0.253906 2.75 -0.765625 L 2.75 -30.796875 C 2.75 -31.304688 3.003906 -31.5625 3.515625 -31.5625 L 23.90625 -31.5625 C 24.414062 -31.5625 24.671875 -31.304688 24.671875 -30.796875 Z M 24.671875 -26.875 "/></g></g></g><g fill="#545454" fill-opacity="1"><g transform="translate(223.881184, 189.012827)"><g><path d="M 13.84375 0.359375 C 11.5 0.359375 9.4375 -0.0976562 7.65625 -1.015625 C 5.882812 -1.929688 4.519531 -3.210938 3.5625 -4.859375 C 2.601562 -6.515625 2.125 -8.425781 2.125 -10.59375 L 2.125 -21.015625 C 2.125 -23.179688 2.601562 -25.085938 3.5625 -26.734375 C 4.519531 -28.390625 5.882812 -29.664062 7.65625 -30.5625 C 9.4375 -31.46875 11.5 -31.921875 13.84375 -31.921875 C 16.15625 -31.921875 18.191406 -31.492188 19.953125 -30.640625 C 21.710938 -29.785156 23.078125 -28.566406 24.046875 -26.984375 C 25.023438 -25.410156 25.515625 -23.585938 25.515625 -21.515625 C 25.515625 -21.242188 25.273438 -21.078125 24.796875 -21.015625 L 19.96875 -20.703125 L 19.796875 -20.703125 C 19.378906 -20.703125 19.171875 -20.773438 19.171875 -20.921875 L 19.171875 -21.1875 C 19.171875 -22.78125 18.679688 -24.054688 17.703125 -25.015625 C 16.722656 -25.984375 15.4375 -26.46875 13.84375 -26.46875 C 12.21875 -26.46875 10.914062 -25.984375 9.9375 -25.015625 C 8.96875 -24.054688 8.484375 -22.78125 8.484375 -21.1875 L 8.484375 -10.328125 C 8.484375 -8.765625 8.96875 -7.5 9.9375 -6.53125 C 10.914062 -5.570312 12.21875 -5.09375 13.84375 -5.09375 C 15.4375 -5.09375 16.722656 -5.570312 17.703125 -6.53125 C 18.679688 -7.5 19.171875 -8.765625 19.171875 -10.328125 C 19.171875 -10.472656 19.238281 -10.597656 19.375 -10.703125 C 19.507812 -10.816406 19.695312 -10.859375 19.9375 -10.828125 L 24.75 -10.59375 C 25.257812 -10.53125 25.515625 -10.457031 25.515625 -10.375 L 25.515625 -10.140625 C 25.515625 -8.066406 25.023438 -6.234375 24.046875 -4.640625 C 23.078125 -3.046875 21.710938 -1.8125 19.953125 -0.9375 C 18.191406 -0.0703125 16.15625 0.359375 13.84375 0.359375 Z M 13.84375 0.359375 "/></g></g></g><g fill="#545454" fill-opacity="1"><g transform="translate(251.302294, 189.012827)"><g><path d="M 13.984375 0.5 C 11.640625 0.5 9.570312 0.0195312 7.78125 -0.9375 C 5.988281 -1.90625 4.597656 -3.253906 3.609375 -4.984375 C 2.617188 -6.710938 2.125 -8.703125 2.125 -10.953125 L 2.125 -20.609375 C 2.125 -22.828125 2.617188 -24.789062 3.609375 -26.5 C 4.597656 -28.21875 5.988281 -29.550781 7.78125 -30.5 C 9.570312 -31.445312 11.640625 -31.921875 13.984375 -31.921875 C 16.359375 -31.921875 18.4375 -31.445312 20.21875 -30.5 C 22.007812 -29.550781 23.398438 -28.21875 24.390625 -26.5 C 25.390625 -24.789062 25.890625 -22.828125 25.890625 -20.609375 L 25.890625 -10.953125 C 25.890625 -8.703125 25.390625 -6.703125 24.390625 -4.953125 C 23.398438 -3.210938 22.007812 -1.867188 20.21875 -0.921875 C 18.4375 0.0234375 16.359375 0.5 13.984375 0.5 Z M 13.984375 -4.953125 C 15.628906 -4.953125 16.960938 -5.476562 17.984375 -6.53125 C 19.015625 -7.582031 19.53125 -8.984375 19.53125 -10.734375 L 19.53125 -20.65625 C 19.53125 -22.394531 19.023438 -23.796875 18.015625 -24.859375 C 17.003906 -25.929688 15.660156 -26.46875 13.984375 -26.46875 C 12.328125 -26.46875 10.992188 -25.929688 9.984375 -24.859375 C 8.984375 -23.796875 8.484375 -22.394531 8.484375 -20.65625 L 8.484375 -10.734375 C 8.484375 -8.984375 8.984375 -7.582031 9.984375 -6.53125 C 10.992188 -5.476562 12.328125 -4.953125 13.984375 -4.953125 Z M 13.984375 -4.953125 "/></g></g></g><g fill="#545454" fill-opacity="1"><g transform="translate(190.429972, 209.984326)"><g><path d="M 6.921875 -7.796875 C 6.921875 -7.660156 6.851562 -7.59375 6.71875 -7.59375 L 2.46875 -7.59375 C 2.414062 -7.59375 2.390625 -7.566406 2.390625 -7.515625 L 2.390625 -5.171875 C 2.390625 -5.117188 2.414062 -5.09375 2.46875 -5.09375 L 5.296875 -5.09375 C 5.429688 -5.09375 5.5 -5.023438 5.5 -4.890625 L 5.5 -4.03125 C 5.5 -3.894531 5.429688 -3.828125 5.296875 -3.828125 L 2.46875 -3.828125 C 2.414062 -3.828125 2.390625 -3.804688 2.390625 -3.765625 L 2.390625 -1.34375 C 2.390625 -1.289062 2.414062 -1.265625 2.46875 -1.265625 L 6.71875 -1.265625 C 6.851562 -1.265625 6.921875 -1.195312 6.921875 -1.0625 L 6.921875 -0.203125 C 6.921875 -0.0664062 6.851562 0 6.71875 0 L 1.125 0 C 0.988281 0 0.921875 -0.0664062 0.921875 -0.203125 L 0.921875 -8.65625 C 0.921875 -8.789062 0.988281 -8.859375 1.125 -8.859375 L 6.71875 -8.859375 C 6.851562 -8.859375 6.921875 -8.789062 6.921875 -8.65625 Z M 6.921875 -7.796875 "/></g></g></g><g fill="#545454" fill-opacity="1"><g transform="translate(200.560995, 209.984326)"><g><path d="M 3.890625 0.09375 C 3.253906 0.09375 2.695312 -0.0234375 2.21875 -0.265625 C 1.738281 -0.515625 1.363281 -0.863281 1.09375 -1.3125 C 0.832031 -1.757812 0.703125 -2.28125 0.703125 -2.875 L 0.703125 -6 C 0.703125 -6.59375 0.832031 -7.109375 1.09375 -7.546875 C 1.363281 -7.992188 1.738281 -8.335938 2.21875 -8.578125 C 2.695312 -8.828125 3.253906 -8.953125 3.890625 -8.953125 C 4.515625 -8.953125 5.066406 -8.832031 5.546875 -8.59375 C 6.023438 -8.363281 6.394531 -8.03125 6.65625 -7.59375 C 6.914062 -7.164062 7.046875 -6.671875 7.046875 -6.109375 C 7.046875 -6.023438 6.984375 -5.976562 6.859375 -5.96875 L 5.78125 -5.890625 L 5.734375 -5.890625 C 5.628906 -5.890625 5.578125 -5.914062 5.578125 -5.96875 L 5.578125 -6.03125 C 5.578125 -6.53125 5.421875 -6.929688 5.109375 -7.234375 C 4.804688 -7.535156 4.398438 -7.6875 3.890625 -7.6875 C 3.367188 -7.6875 2.953125 -7.535156 2.640625 -7.234375 C 2.328125 -6.929688 2.171875 -6.53125 2.171875 -6.03125 L 2.171875 -2.8125 C 2.171875 -2.320312 2.328125 -1.925781 2.640625 -1.625 C 2.953125 -1.320312 3.367188 -1.171875 3.890625 -1.171875 C 4.398438 -1.171875 4.804688 -1.316406 5.109375 -1.609375 C 5.421875 -1.910156 5.578125 -2.3125 5.578125 -2.8125 C 5.578125 -2.851562 5.59375 -2.890625 5.625 -2.921875 C 5.664062 -2.953125 5.71875 -2.960938 5.78125 -2.953125 L 6.84375 -2.890625 C 6.976562 -2.878906 7.046875 -2.859375 7.046875 -2.828125 L 7.046875 -2.765625 C 7.046875 -2.191406 6.914062 -1.6875 6.65625 -1.25 C 6.394531 -0.820312 6.023438 -0.488281 5.546875 -0.25 C 5.066406 -0.0195312 4.515625 0.09375 3.890625 0.09375 Z M 3.890625 0.09375 "/></g></g></g><g fill="#545454" fill-opacity="1"><g transform="translate(210.894338, 209.984326)"><g><path d="M 3.921875 0.125 C 3.285156 0.125 2.722656 0 2.234375 -0.25 C 1.742188 -0.507812 1.363281 -0.875 1.09375 -1.34375 C 0.832031 -1.820312 0.703125 -2.367188 0.703125 -2.984375 L 0.703125 -5.875 C 0.703125 -6.476562 0.835938 -7.015625 1.109375 -7.484375 C 1.378906 -7.953125 1.753906 -8.3125 2.234375 -8.5625 C 2.722656 -8.820312 3.285156 -8.953125 3.921875 -8.953125 C 4.566406 -8.953125 5.128906 -8.820312 5.609375 -8.5625 C 6.097656 -8.3125 6.476562 -7.953125 6.75 -7.484375 C 7.019531 -7.015625 7.15625 -6.476562 7.15625 -5.875 L 7.15625 -2.984375 C 7.15625 -2.367188 7.019531 -1.820312 6.75 -1.34375 C 6.476562 -0.875 6.097656 -0.507812 5.609375 -0.25 C 5.128906 0 4.566406 0.125 3.921875 0.125 Z M 3.921875 -1.140625 C 4.453125 -1.140625 4.878906 -1.300781 5.203125 -1.625 C 5.523438 -1.957031 5.6875 -2.394531 5.6875 -2.9375 L 5.6875 -5.890625 C 5.6875 -6.429688 5.523438 -6.863281 5.203125 -7.1875 C 4.878906 -7.519531 4.453125 -7.6875 3.921875 -7.6875 C 3.398438 -7.6875 2.976562 -7.519531 2.65625 -7.1875 C 2.332031 -6.863281 2.171875 -6.429688 2.171875 -5.890625 L 2.171875 -2.9375 C 2.171875 -2.394531 2.332031 -1.957031 2.65625 -1.625 C 2.976562 -1.300781 3.398438 -1.140625 3.921875 -1.140625 Z M 3.921875 -1.140625 "/></g></g></g><g fill="#545454" fill-opacity="1"><g transform="translate(221.392051, 209.984326)"><g><path d="M 1.125 0 C 0.988281 0 0.921875 -0.0664062 0.921875 -0.203125 L 0.921875 -8.65625 C 0.921875 -8.789062 0.988281 -8.859375 1.125 -8.859375 L 2.1875 -8.859375 C 2.320312 -8.859375 2.390625 -8.789062 2.390625 -8.65625 L 2.390625 -1.34375 C 2.390625 -1.289062 2.414062 -1.265625 2.46875 -1.265625 L 6.640625 -1.265625 C 6.773438 -1.265625 6.84375 -1.195312 6.84375 -1.0625 L 6.84375 -0.203125 C 6.84375 -0.0664062 6.773438 0 6.640625 0 Z M 1.125 0 "/></g></g></g><g fill="#545454" fill-opacity="1"><g transform="translate(231.25755, 209.984326)"><g><path d="M 3.921875 0.125 C 3.285156 0.125 2.722656 0 2.234375 -0.25 C 1.742188 -0.507812 1.363281 -0.875 1.09375 -1.34375 C 0.832031 -1.820312 0.703125 -2.367188 0.703125 -2.984375 L 0.703125 -5.875 C 0.703125 -6.476562 0.835938 -7.015625 1.109375 -7.484375 C 1.378906 -7.953125 1.753906 -8.3125 2.234375 -8.5625 C 2.722656 -8.820312 3.285156 -8.953125 3.921875 -8.953125 C 4.566406 -8.953125 5.128906 -8.820312 5.609375 -8.5625 C 6.097656 -8.3125 6.476562 -7.953125 6.75 -7.484375 C 7.019531 -7.015625 7.15625 -6.476562 7.15625 -5.875 L 7.15625 -2.984375 C 7.15625 -2.367188 7.019531 -1.820312 6.75 -1.34375 C 6.476562 -0.875 6.097656 -0.507812 5.609375 -0.25 C 5.128906 0 4.566406 0.125 3.921875 0.125 Z M 3.921875 -1.140625 C 4.453125 -1.140625 4.878906 -1.300781 5.203125 -1.625 C 5.523438 -1.957031 5.6875 -2.394531 5.6875 -2.9375 L 5.6875 -5.890625 C 5.6875 -6.429688 5.523438 -6.863281 5.203125 -7.1875 C 4.878906 -7.519531 4.453125 -7.6875 3.921875 -7.6875 C 3.398438 -7.6875 2.976562 -7.519531 2.65625 -7.1875 C 2.332031 -6.863281 2.171875 -6.429688 2.171875 -5.890625 L 2.171875 -2.9375 C 2.171875 -2.394531 2.332031 -1.957031 2.65625 -1.625 C 2.976562 -1.300781 3.398438 -1.140625 3.921875 -1.140625 Z M 3.921875 -1.140625 "/></g></g></g><g fill="#545454" fill-opacity="1"><g transform="translate(241.755266, 209.984326)"><g><path d="M 3.890625 0.09375 C 3.253906 0.09375 2.695312 -0.0234375 2.21875 -0.265625 C 1.738281 -0.515625 1.363281 -0.867188 1.09375 -1.328125 C 0.832031 -1.785156 0.703125 -2.304688 0.703125 -2.890625 L 0.703125 -5.96875 C 0.703125 -6.5625 0.832031 -7.082031 1.09375 -7.53125 C 1.363281 -7.988281 1.738281 -8.335938 2.21875 -8.578125 C 2.695312 -8.828125 3.253906 -8.953125 3.890625 -8.953125 C 4.515625 -8.953125 5.0625 -8.828125 5.53125 -8.578125 C 6.007812 -8.335938 6.378906 -8.003906 6.640625 -7.578125 C 6.898438 -7.160156 7.03125 -6.6875 7.03125 -6.15625 L 7.03125 -6.109375 C 7.03125 -5.972656 6.960938 -5.90625 6.828125 -5.90625 L 5.78125 -5.90625 C 5.71875 -5.90625 5.664062 -5.914062 5.625 -5.9375 C 5.59375 -5.957031 5.578125 -5.988281 5.578125 -6.03125 L 5.578125 -6.125 C 5.578125 -6.582031 5.421875 -6.957031 5.109375 -7.25 C 4.804688 -7.539062 4.398438 -7.6875 3.890625 -7.6875 C 3.367188 -7.6875 2.953125 -7.53125 2.640625 -7.21875 C 2.328125 -6.914062 2.171875 -6.515625 2.171875 -6.015625 L 2.171875 -2.84375 C 2.171875 -2.34375 2.332031 -1.9375 2.65625 -1.625 C 2.988281 -1.320312 3.421875 -1.171875 3.953125 -1.171875 C 4.453125 -1.171875 4.847656 -1.300781 5.140625 -1.5625 C 5.429688 -1.832031 5.578125 -2.195312 5.578125 -2.65625 L 5.578125 -3.4375 C 5.578125 -3.476562 5.550781 -3.5 5.5 -3.5 L 4.015625 -3.5 C 3.878906 -3.5 3.8125 -3.566406 3.8125 -3.703125 L 3.8125 -4.546875 C 3.8125 -4.679688 3.878906 -4.75 4.015625 -4.75 L 6.828125 -4.75 C 6.960938 -4.75 7.03125 -4.679688 7.03125 -4.546875 L 7.03125 -2.96875 C 7.03125 -2 6.742188 -1.242188 6.171875 -0.703125 C 5.609375 -0.171875 4.847656 0.09375 3.890625 0.09375 Z M 3.890625 0.09375 "/></g></g></g><g fill="#545454" fill-opacity="1"><g transform="translate(252.06332, 209.984326)"><g><path d="M 1.125 0 C 0.988281 0 0.921875 -0.0664062 0.921875 -0.203125 L 0.921875 -8.65625 C 0.921875 -8.789062 0.988281 -8.859375 1.125 -8.859375 L 2.1875 -8.859375 C 2.320312 -8.859375 2.390625 -8.789062 2.390625 -8.65625 L 2.390625 -0.203125 C 2.390625 -0.0664062 2.320312 0 2.1875 0 Z M 1.125 0 "/></g></g></g><g fill="#545454" fill-opacity="1"><g transform="translate(258.021669, 209.984326)"><g><path d="M 3.890625 0.09375 C 3.253906 0.09375 2.695312 -0.0234375 2.21875 -0.265625 C 1.738281 -0.515625 1.363281 -0.863281 1.09375 -1.3125 C 0.832031 -1.757812 0.703125 -2.28125 0.703125 -2.875 L 0.703125 -6 C 0.703125 -6.59375 0.832031 -7.109375 1.09375 -7.546875 C 1.363281 -7.992188 1.738281 -8.335938 2.21875 -8.578125 C 2.695312 -8.828125 3.253906 -8.953125 3.890625 -8.953125 C 4.515625 -8.953125 5.066406 -8.832031 5.546875 -8.59375 C 6.023438 -8.363281 6.394531 -8.03125 6.65625 -7.59375 C 6.914062 -7.164062 7.046875 -6.671875 7.046875 -6.109375 C 7.046875 -6.023438 6.984375 -5.976562 6.859375 -5.96875 L 5.78125 -5.890625 L 5.734375 -5.890625 C 5.628906 -5.890625 5.578125 -5.914062 5.578125 -5.96875 L 5.578125 -6.03125 C 5.578125 -6.53125 5.421875 -6.929688 5.109375 -7.234375 C 4.804688 -7.535156 4.398438 -7.6875 3.890625 -7.6875 C 3.367188 -7.6875 2.953125 -7.535156 2.640625 -7.234375 C 2.328125 -6.929688 2.171875 -6.53125 2.171875 -6.03125 L 2.171875 -2.8125 C 2.171875 -2.320312 2.328125 -1.925781 2.640625 -1.625 C 2.953125 -1.320312 3.367188 -1.171875 3.890625 -1.171875 C 4.398438 -1.171875 4.804688 -1.316406 5.109375 -1.609375 C 5.421875 -1.910156 5.578125 -2.3125 5.578125 -2.8125 C 5.578125 -2.851562 5.59375 -2.890625 5.625 -2.921875 C 5.664062 -2.953125 5.71875 -2.960938 5.78125 -2.953125 L 6.84375 -2.890625 C 6.976562 -2.878906 7.046875 -2.859375 7.046875 -2.828125 L 7.046875 -2.765625 C 7.046875 -2.191406 6.914062 -1.6875 6.65625 -1.25 C 6.394531 -0.820312 6.023438 -0.488281 5.546875 -0.25 C 5.066406 -0.0195312 4.515625 0.09375 3.890625 0.09375 Z M 3.890625 0.09375 "/></g></g></g><g fill="#545454" fill-opacity="1"><g transform="translate(268.355013, 209.984326)"><g><path d="M 6.46875 0 C 6.351562 0 6.273438 -0.0546875 6.234375 -0.171875 L 5.84375 -1.46875 C 5.832031 -1.507812 5.804688 -1.53125 5.765625 -1.53125 L 2.4375 -1.53125 C 2.382812 -1.53125 2.359375 -1.507812 2.359375 -1.46875 L 1.96875 -0.171875 C 1.925781 -0.0546875 1.847656 0 1.734375 0 L 0.578125 0 C 0.515625 0 0.46875 -0.0195312 0.4375 -0.0625 C 0.40625 -0.101562 0.398438 -0.160156 0.421875 -0.234375 L 3.125 -8.6875 C 3.15625 -8.800781 3.234375 -8.859375 3.359375 -8.859375 L 4.828125 -8.859375 C 4.953125 -8.859375 5.03125 -8.800781 5.0625 -8.6875 L 7.78125 -0.234375 C 7.789062 -0.210938 7.796875 -0.1875 7.796875 -0.15625 C 7.796875 -0.0507812 7.738281 0 7.625 0 Z M 2.75 -2.765625 C 2.738281 -2.710938 2.757812 -2.6875 2.8125 -2.6875 L 5.390625 -2.6875 C 5.441406 -2.6875 5.460938 -2.710938 5.453125 -2.765625 L 4.15625 -7.078125 C 4.144531 -7.109375 4.128906 -7.125 4.109375 -7.125 C 4.085938 -7.125 4.066406 -7.109375 4.046875 -7.078125 Z M 2.75 -2.765625 "/></g></g></g><g fill="#545454" fill-opacity="1"><g transform="translate(279.19413, 209.984326)"><g><path d="M 1.125 0 C 0.988281 0 0.921875 -0.0664062 0.921875 -0.203125 L 0.921875 -8.65625 C 0.921875 -8.789062 0.988281 -8.859375 1.125 -8.859375 L 2.1875 -8.859375 C 2.320312 -8.859375 2.390625 -8.789062 2.390625 -8.65625 L 2.390625 -1.34375 C 2.390625 -1.289062 2.414062 -1.265625 2.46875 -1.265625 L 6.640625 -1.265625 C 6.773438 -1.265625 6.84375 -1.195312 6.84375 -1.0625 L 6.84375 -0.203125 C 6.84375 -0.0664062 6.773438 0 6.640625 0 Z M 1.125 0 "/></g></g></g><g fill="#545454" fill-opacity="1"><g transform="translate(184.629191, 227.234325)"><g><path d="M 3.921875 0.125 C 3.285156 0.125 2.722656 0 2.234375 -0.25 C 1.742188 -0.507812 1.363281 -0.875 1.09375 -1.34375 C 0.832031 -1.820312 0.703125 -2.367188 0.703125 -2.984375 L 0.703125 -5.875 C 0.703125 -6.476562 0.835938 -7.015625 1.109375 -7.484375 C 1.378906 -7.953125 1.753906 -8.3125 2.234375 -8.5625 C 2.722656 -8.820312 3.285156 -8.953125 3.921875 -8.953125 C 4.566406 -8.953125 5.128906 -8.820312 5.609375 -8.5625 C 6.097656 -8.3125 6.476562 -7.953125 6.75 -7.484375 C 7.019531 -7.015625 7.15625 -6.476562 7.15625 -5.875 L 7.15625 -2.984375 C 7.15625 -2.367188 7.019531 -1.820312 6.75 -1.34375 C 6.476562 -0.875 6.097656 -0.507812 5.609375 -0.25 C 5.128906 0 4.566406 0.125 3.921875 0.125 Z M 3.921875 -1.140625 C 4.453125 -1.140625 4.878906 -1.300781 5.203125 -1.625 C 5.523438 -1.957031 5.6875 -2.394531 5.6875 -2.9375 L 5.6875 -5.890625 C 5.6875 -6.429688 5.523438 -6.863281 5.203125 -7.1875 C 4.878906 -7.519531 4.453125 -7.6875 3.921875 -7.6875 C 3.398438 -7.6875 2.976562 -7.519531 2.65625 -7.1875 C 2.332031 -6.863281 2.171875 -6.429688 2.171875 -5.890625 L 2.171875 -2.9375 C 2.171875 -2.394531 2.332031 -1.957031 2.65625 -1.625 C 2.976562 -1.300781 3.398438 -1.140625 3.921875 -1.140625 Z M 3.921875 -1.140625 "/></g></g></g><g fill="#545454" fill-opacity="1"><g transform="translate(195.126905, 227.234325)"><g><path d="M 3.890625 0.09375 C 3.253906 0.09375 2.695312 -0.0234375 2.21875 -0.265625 C 1.738281 -0.515625 1.363281 -0.863281 1.09375 -1.3125 C 0.832031 -1.757812 0.703125 -2.28125 0.703125 -2.875 L 0.703125 -6 C 0.703125 -6.59375 0.832031 -7.109375 1.09375 -7.546875 C 1.363281 -7.992188 1.738281 -8.335938 2.21875 -8.578125 C 2.695312 -8.828125 3.253906 -8.953125 3.890625 -8.953125 C 4.515625 -8.953125 5.066406 -8.832031 5.546875 -8.59375 C 6.023438 -8.363281 6.394531 -8.03125 6.65625 -7.59375 C 6.914062 -7.164062 7.046875 -6.671875 7.046875 -6.109375 C 7.046875 -6.023438 6.984375 -5.976562 6.859375 -5.96875 L 5.78125 -5.890625 L 5.734375 -5.890625 C 5.628906 -5.890625 5.578125 -5.914062 5.578125 -5.96875 L 5.578125 -6.03125 C 5.578125 -6.53125 5.421875 -6.929688 5.109375 -7.234375 C 4.804688 -7.535156 4.398438 -7.6875 3.890625 -7.6875 C 3.367188 -7.6875 2.953125 -7.535156 2.640625 -7.234375 C 2.328125 -6.929688 2.171875 -6.53125 2.171875 -6.03125 L 2.171875 -2.8125 C 2.171875 -2.320312 2.328125 -1.925781 2.640625 -1.625 C 2.953125 -1.320312 3.367188 -1.171875 3.890625 -1.171875 C 4.398438 -1.171875 4.804688 -1.316406 5.109375 -1.609375 C 5.421875 -1.910156 5.578125 -2.3125 5.578125 -2.8125 C 5.578125 -2.851562 5.59375 -2.890625 5.625 -2.921875 C 5.664062 -2.953125 5.71875 -2.960938 5.78125 -2.953125 L 6.84375 -2.890625 C 6.976562 -2.878906 7.046875 -2.859375 7.046875 -2.828125 L 7.046875 -2.765625 C 7.046875 -2.191406 6.914062 -1.6875 6.65625 -1.25 C 6.394531 -0.820312 6.023438 -0.488281 5.546875 -0.25 C 5.066406 -0.0195312 4.515625 0.09375 3.890625 0.09375 Z M 3.890625 0.09375 "/></g></g></g><g fill="#545454" fill-opacity="1"><g transform="translate(205.460249, 227.234325)"><g><path d="M 6.921875 -7.796875 C 6.921875 -7.660156 6.851562 -7.59375 6.71875 -7.59375 L 2.46875 -7.59375 C 2.414062 -7.59375 2.390625 -7.566406 2.390625 -7.515625 L 2.390625 -5.171875 C 2.390625 -5.117188 2.414062 -5.09375 2.46875 -5.09375 L 5.296875 -5.09375 C 5.429688 -5.09375 5.5 -5.023438 5.5 -4.890625 L 5.5 -4.03125 C 5.5 -3.894531 5.429688 -3.828125 5.296875 -3.828125 L 2.46875 -3.828125 C 2.414062 -3.828125 2.390625 -3.804688 2.390625 -3.765625 L 2.390625 -1.34375 C 2.390625 -1.289062 2.414062 -1.265625 2.46875 -1.265625 L 6.71875 -1.265625 C 6.851562 -1.265625 6.921875 -1.195312 6.921875 -1.0625 L 6.921875 -0.203125 C 6.921875 -0.0664062 6.851562 0 6.71875 0 L 1.125 0 C 0.988281 0 0.921875 -0.0664062 0.921875 -0.203125 L 0.921875 -8.65625 C 0.921875 -8.789062 0.988281 -8.859375 1.125 -8.859375 L 6.71875 -8.859375 C 6.851562 -8.859375 6.921875 -8.789062 6.921875 -8.65625 Z M 6.921875 -7.796875 "/></g></g></g><g fill="#545454" fill-opacity="1"><g transform="translate(215.591271, 227.234325)"><g><path d="M 6.46875 0 C 6.351562 0 6.273438 -0.0546875 6.234375 -0.171875 L 5.84375 -1.46875 C 5.832031 -1.507812 5.804688 -1.53125 5.765625 -1.53125 L 2.4375 -1.53125 C 2.382812 -1.53125 2.359375 -1.507812 2.359375 -1.46875 L 1.96875 -0.171875 C 1.925781 -0.0546875 1.847656 0 1.734375 0 L 0.578125 0 C 0.515625 0 0.46875 -0.0195312 0.4375 -0.0625 C 0.40625 -0.101562 0.398438 -0.160156 0.421875 -0.234375 L 3.125 -8.6875 C 3.15625 -8.800781 3.234375 -8.859375 3.359375 -8.859375 L 4.828125 -8.859375 C 4.953125 -8.859375 5.03125 -8.800781 5.0625 -8.6875 L 7.78125 -0.234375 C 7.789062 -0.210938 7.796875 -0.1875 7.796875 -0.15625 C 7.796875 -0.0507812 7.738281 0 7.625 0 Z M 2.75 -2.765625 C 2.738281 -2.710938 2.757812 -2.6875 2.8125 -2.6875 L 5.390625 -2.6875 C 5.441406 -2.6875 5.460938 -2.710938 5.453125 -2.765625 L 4.15625 -7.078125 C 4.144531 -7.109375 4.128906 -7.125 4.109375 -7.125 C 4.085938 -7.125 4.066406 -7.109375 4.046875 -7.078125 Z M 2.75 -2.765625 "/></g></g></g><g fill="#545454" fill-opacity="1"><g transform="translate(226.430387, 227.234325)"><g><path d="M 1.125 0 C 0.988281 0 0.921875 -0.0664062 0.921875 -0.203125 L 0.921875 -8.65625 C 0.921875 -8.789062 0.988281 -8.859375 1.125 -8.859375 L 2.140625 -8.859375 C 2.253906 -8.859375 2.335938 -8.8125 2.390625 -8.71875 L 5.9375 -2.921875 C 5.957031 -2.890625 5.976562 -2.875 6 -2.875 C 6.019531 -2.882812 6.03125 -2.910156 6.03125 -2.953125 L 6.03125 -8.65625 C 6.03125 -8.789062 6.097656 -8.859375 6.234375 -8.859375 L 7.296875 -8.859375 C 7.429688 -8.859375 7.5 -8.789062 7.5 -8.65625 L 7.5 -0.203125 C 7.5 -0.0664062 7.429688 0 7.296875 0 L 6.25 0 C 6.132812 0 6.050781 -0.046875 6 -0.140625 L 2.453125 -5.96875 C 2.441406 -6.007812 2.421875 -6.023438 2.390625 -6.015625 C 2.367188 -6.003906 2.359375 -5.984375 2.359375 -5.953125 L 2.375 -0.203125 C 2.375 -0.0664062 2.304688 0 2.171875 0 Z M 1.125 0 "/></g></g></g><g fill="#545454" fill-opacity="1"><g transform="translate(237.471812, 227.234325)"><g/></g></g><g fill="#545454" fill-opacity="1"><g transform="translate(242.646206, 227.234325)"><g><path d="M 3.890625 0.09375 C 3.253906 0.09375 2.695312 -0.0234375 2.21875 -0.265625 C 1.738281 -0.515625 1.363281 -0.863281 1.09375 -1.3125 C 0.832031 -1.757812 0.703125 -2.28125 0.703125 -2.875 L 0.703125 -6 C 0.703125 -6.59375 0.832031 -7.109375 1.09375 -7.546875 C 1.363281 -7.992188 1.738281 -8.335938 2.21875 -8.578125 C 2.695312 -8.828125 3.253906 -8.953125 3.890625 -8.953125 C 4.515625 -8.953125 5.066406 -8.832031 5.546875 -8.59375 C 6.023438 -8.363281 6.394531 -8.03125 6.65625 -7.59375 C 6.914062 -7.164062 7.046875 -6.671875 7.046875 -6.109375 C 7.046875 -6.023438 6.984375 -5.976562 6.859375 -5.96875 L 5.78125 -5.890625 L 5.734375 -5.890625 C 5.628906 -5.890625 5.578125 -5.914062 5.578125 -5.96875 L 5.578125 -6.03125 C 5.578125 -6.53125 5.421875 -6.929688 5.109375 -7.234375 C 4.804688 -7.535156 4.398438 -7.6875 3.890625 -7.6875 C 3.367188 -7.6875 2.953125 -7.535156 2.640625 -7.234375 C 2.328125 -6.929688 2.171875 -6.53125 2.171875 -6.03125 L 2.171875 -2.8125 C 2.171875 -2.320312 2.328125 -1.925781 2.640625 -1.625 C 2.953125 -1.320312 3.367188 -1.171875 3.890625 -1.171875 C 4.398438 -1.171875 4.804688 -1.316406 5.109375 -1.609375 C 5.421875 -1.910156 5.578125 -2.3125 5.578125 -2.8125 C 5.578125 -2.851562 5.59375 -2.890625 5.625 -2.921875 C 5.664062 -2.953125 5.71875 -2.960938 5.78125 -2.953125 L 6.84375 -2.890625 C 6.976562 -2.878906 7.046875 -2.859375 7.046875 -2.828125 L 7.046875 -2.765625 C 7.046875 -2.191406 6.914062 -1.6875 6.65625 -1.25 C 6.394531 -0.820312 6.023438 -0.488281 5.546875 -0.25 C 5.066406 -0.0195312 4.515625 0.09375 3.890625 0.09375 Z M 3.890625 0.09375 "/></g></g></g><g fill="#545454" fill-opacity="1"><g transform="translate(252.979551, 227.234325)"><g><path d="M 1.125 0 C 0.988281 0 0.921875 -0.0664062 0.921875 -0.203125 L 0.921875 -8.65625 C 0.921875 -8.789062 0.988281 -8.859375 1.125 -8.859375 L 2.1875 -8.859375 C 2.320312 -8.859375 2.390625 -8.789062 2.390625 -8.65625 L 2.390625 -1.34375 C 2.390625 -1.289062 2.414062 -1.265625 2.46875 -1.265625 L 6.640625 -1.265625 C 6.773438 -1.265625 6.84375 -1.195312 6.84375 -1.0625 L 6.84375 -0.203125 C 6.84375 -0.0664062 6.773438 0 6.640625 0 Z M 1.125 0 "/></g></g></g><g fill="#545454" fill-opacity="1"><g transform="translate(262.84505, 227.234325)"><g><path d="M 6.921875 -7.796875 C 6.921875 -7.660156 6.851562 -7.59375 6.71875 -7.59375 L 2.46875 -7.59375 C 2.414062 -7.59375 2.390625 -7.566406 2.390625 -7.515625 L 2.390625 -5.171875 C 2.390625 -5.117188 2.414062 -5.09375 2.46875 -5.09375 L 5.296875 -5.09375 C 5.429688 -5.09375 5.5 -5.023438 5.5 -4.890625 L 5.5 -4.03125 C 5.5 -3.894531 5.429688 -3.828125 5.296875 -3.828125 L 2.46875 -3.828125 C 2.414062 -3.828125 2.390625 -3.804688 2.390625 -3.765625 L 2.390625 -1.34375 C 2.390625 -1.289062 2.414062 -1.265625 2.46875 -1.265625 L 6.71875 -1.265625 C 6.851562 -1.265625 6.921875 -1.195312 6.921875 -1.0625 L 6.921875 -0.203125 C 6.921875 -0.0664062 6.851562 0 6.71875 0 L 1.125 0 C 0.988281 0 0.921875 -0.0664062 0.921875 -0.203125 L 0.921875 -8.65625 C 0.921875 -8.789062 0.988281 -8.859375 1.125 -8.859375 L 6.71875 -8.859375 C 6.851562 -8.859375 6.921875 -8.789062 6.921875 -8.65625 Z M 6.921875 -7.796875 "/></g></g></g><g fill="#545454" fill-opacity="1"><g transform="translate(272.976074, 227.234325)"><g><path d="M 6.46875 0 C 6.351562 0 6.273438 -0.0546875 6.234375 -0.171875 L 5.84375 -1.46875 C 5.832031 -1.507812 5.804688 -1.53125 5.765625 -1.53125 L 2.4375 -1.53125 C 2.382812 -1.53125 2.359375 -1.507812 2.359375 -1.46875 L 1.96875 -0.171875 C 1.925781 -0.0546875 1.847656 0 1.734375 0 L 0.578125 0 C 0.515625 0 0.46875 -0.0195312 0.4375 -0.0625 C 0.40625 -0.101562 0.398438 -0.160156 0.421875 -0.234375 L 3.125 -8.6875 C 3.15625 -8.800781 3.234375 -8.859375 3.359375 -8.859375 L 4.828125 -8.859375 C 4.953125 -8.859375 5.03125 -8.800781 5.0625 -8.6875 L 7.78125 -0.234375 C 7.789062 -0.210938 7.796875 -0.1875 7.796875 -0.15625 C 7.796875 -0.0507812 7.738281 0 7.625 0 Z M 2.75 -2.765625 C 2.738281 -2.710938 2.757812 -2.6875 2.8125 -2.6875 L 5.390625 -2.6875 C 5.441406 -2.6875 5.460938 -2.710938 5.453125 -2.765625 L 4.15625 -7.078125 C 4.144531 -7.109375 4.128906 -7.125 4.109375 -7.125 C 4.085938 -7.125 4.066406 -7.109375 4.046875 -7.078125 Z M 2.75 -2.765625 "/></g></g></g><g fill="#545454" fill-opacity="1"><g transform="translate(283.815185, 227.234325)"><g><path d="M 1.125 0 C 0.988281 0 0.921875 -0.0664062 0.921875 -0.203125 L 0.921875 -8.65625 C 0.921875 -8.789062 0.988281 -8.859375 1.125 -8.859375 L 2.140625 -8.859375 C 2.253906 -8.859375 2.335938 -8.8125 2.390625 -8.71875 L 5.9375 -2.921875 C 5.957031 -2.890625 5.976562 -2.875 6 -2.875 C 6.019531 -2.882812 6.03125 -2.910156 6.03125 -2.953125 L 6.03125 -8.65625 C 6.03125 -8.789062 6.097656 -8.859375 6.234375 -8.859375 L 7.296875 -8.859375 C 7.429688 -8.859375 7.5 -8.789062 7.5 -8.65625 L 7.5 -0.203125 C 7.5 -0.0664062 7.429688 0 7.296875 0 L 6.25 0 C 6.132812 0 6.050781 -0.046875 6 -0.140625 L 2.453125 -5.96875 C 2.441406 -6.007812 2.421875 -6.023438 2.390625 -6.015625 C 2.367188 -6.003906 2.359375 -5.984375 2.359375 -5.953125 L 2.375 -0.203125 C 2.375 -0.0664062 2.304688 0 2.171875 0 Z M 1.125 0 "/></g></g></g></svg>