<svg xmlns="http://www.w3.org/2000/svg" xmlns:xlink="http://www.w3.org/1999/xlink" width="500" zoomAndPan="magnify" viewBox="0 0 375 374.999991" height="500" preserveAspectRatio="xMidYMid meet" version="1.0"><defs><clipPath id="bcbd3143ce"><path d="M 73 6.476562 L 296 6.476562 L 296 282 L 73 282 Z M 73 6.476562 " clip-rule="nonzero"/></clipPath><clipPath id="b925b95a5b"><path d="M 0 78 L 375 78 L 375 368.726562 L 0 368.726562 Z M 0 78 " clip-rule="nonzero"/></clipPath></defs><g clip-path="url(#bcbd3143ce)"><path fill="#1089b8" d="M 295.660156 190.726562 C 271.894531 122.9375 215.515625 44.324219 190.238281 6.535156 C 157.746094 55.085938 73.898438 171.105469 73.898438 244.886719 L 73.898438 252.265625 C 73.898438 261.414062 75.027344 270.339844 77.117188 278.941406 C 80.628906 279.683594 84.136719 280.230469 87.582031 280.617188 C 80.304688 250.78125 85.265625 215.148438 102.460938 173.683594 C 91.707031 215.277344 88.195312 251.074219 91.898438 281.035156 C 94.089844 281.230469 96.246094 281.359375 98.304688 281.421875 C 136.140625 282.839844 177.195312 270.660156 210.941406 254.261719 C 241.660156 239.34375 273.34375 217.535156 295.628906 190.664062 Z M 295.660156 190.726562 " fill-opacity="1" fill-rule="evenodd"/></g><g clip-path="url(#b925b95a5b)"><path fill="#00afef" d="M 306.542969 250.394531 C 305.414062 251.332031 304.257812 252.265625 303.097656 253.199219 C 304.257812 252.265625 305.414062 251.332031 306.542969 250.394531 Z M 302.96875 253.328125 C 301.808594 254.261719 300.617188 255.195312 299.425781 256.132812 C 300.617188 255.195312 301.808594 254.261719 302.96875 253.328125 Z M 299.363281 256.164062 C 298.171875 257.097656 296.949219 258.03125 295.722656 258.964844 C 296.949219 258.03125 298.171875 257.097656 299.363281 256.164062 Z M 295.660156 259 C 294.4375 259.933594 293.210938 260.835938 291.957031 261.769531 C 293.210938 260.867188 294.4375 259.933594 295.660156 259 Z M 291.859375 261.835938 C 290.636719 262.734375 289.378906 263.636719 288.125 264.539062 C 289.378906 263.636719 290.636719 262.734375 291.859375 261.835938 Z M 288.058594 264.605469 C 286.804688 265.507812 285.515625 266.410156 284.261719 267.3125 C 285.546875 266.410156 286.804688 265.507812 288.058594 264.605469 Z M 284.066406 267.40625 C 281.492188 269.210938 278.851562 270.984375 276.179688 272.722656 C 278.851562 270.984375 281.492188 269.179688 284.066406 267.40625 Z M 276.179688 272.722656 L 276.050781 272.820312 C 274.699219 273.691406 273.378906 274.558594 271.992188 275.429688 C 270.640625 276.300781 269.289062 277.136719 267.902344 278.007812 C 269.289062 277.171875 270.640625 276.300781 271.992188 275.429688 Z M 267.710938 278.136719 C 266.324219 278.972656 264.972656 279.84375 263.554688 280.648438 C 264.941406 279.8125 266.324219 278.972656 267.710938 278.136719 Z M 263.523438 280.683594 C 262.140625 281.519531 260.722656 282.355469 259.304688 283.195312 C 260.722656 282.355469 262.140625 281.519531 263.523438 280.683594 Z M 259.175781 283.257812 C 257.761719 284.097656 256.34375 284.902344 254.894531 285.742188 C 256.34375 284.933594 257.761719 284.097656 259.175781 283.257812 Z M 254.796875 285.773438 C 253.347656 286.578125 251.898438 287.382812 250.449219 288.1875 C 251.898438 287.382812 253.347656 286.578125 254.796875 285.773438 Z M 250.386719 288.253906 C 248.90625 289.058594 247.457031 289.863281 245.941406 290.667969 C 247.425781 289.863281 248.90625 289.089844 250.386719 288.253906 Z M 245.878906 290.703125 C 244.429688 291.476562 242.949219 292.25 241.46875 293.023438 C 242.949219 292.25 244.429688 291.476562 245.878906 290.703125 Z M 241.304688 293.117188 C 239.824219 293.890625 238.34375 294.632812 236.863281 295.375 C 238.34375 294.632812 239.855469 293.859375 241.304688 293.117188 Z M 236.636719 295.503906 C 235.125 296.277344 233.609375 297.015625 232.066406 297.757812 C 230.550781 298.5 229.039062 299.207031 227.523438 299.917969 C 229.039062 299.207031 230.550781 298.464844 232.066406 297.757812 C 233.609375 297.015625 235.125 296.277344 236.636719 295.503906 Z M 227.105469 300.109375 C 225.6875 300.785156 224.273438 301.429688 222.855469 302.074219 C 224.273438 301.429688 225.6875 300.785156 227.105469 300.109375 Z M 222.4375 302.269531 C 220.957031 302.945312 219.472656 303.589844 217.992188 304.234375 C 219.472656 303.589844 220.957031 302.914062 222.4375 302.269531 Z M 217.863281 304.296875 C 216.351562 304.976562 214.835938 305.621094 213.292969 306.261719 C 214.804688 305.621094 216.320312 304.976562 217.863281 304.296875 Z M 213.035156 306.390625 C 211.585938 307.003906 210.167969 307.585938 208.71875 308.195312 C 210.167969 307.617188 211.585938 307.003906 213.035156 306.390625 Z M 208.300781 308.359375 C 206.851562 308.9375 205.433594 309.519531 203.988281 310.097656 C 205.433594 309.519531 206.851562 308.9375 208.300781 308.359375 Z M 203.730469 310.195312 C 202.246094 310.773438 200.734375 311.355469 199.253906 311.933594 C 200.734375 311.355469 202.246094 310.773438 203.730469 310.195312 Z M 198.929688 312.03125 C 197.515625 312.578125 196.097656 313.09375 194.679688 313.609375 C 196.097656 313.09375 197.515625 312.578125 198.929688 312.03125 Z M 194.230469 313.769531 C 192.8125 314.285156 191.429688 314.769531 190.011719 315.285156 C 191.394531 314.800781 192.8125 314.285156 194.230469 313.769531 Z M 189.65625 315.414062 C 188.175781 315.929688 186.695312 316.445312 185.214844 316.929688 C 186.695312 316.445312 188.175781 315.929688 189.65625 315.414062 Z M 185.019531 316.992188 C 183.605469 317.476562 182.15625 317.925781 180.738281 318.410156 C 182.15625 317.957031 183.605469 317.476562 185.019531 316.992188 Z M 180.253906 318.539062 C 178.871094 318.988281 177.484375 319.410156 176.101562 319.828125 C 177.484375 319.410156 178.871094 318.957031 180.253906 318.539062 Z M 175.8125 319.925781 C 174.332031 320.375 172.882812 320.828125 171.398438 321.246094 C 172.882812 320.828125 174.332031 320.375 175.8125 319.925781 Z M 171.269531 321.277344 C 169.855469 321.695312 168.4375 322.082031 166.988281 322.5 C 168.40625 322.113281 169.820312 321.695312 171.269531 321.277344 Z M 166.472656 322.628906 C 165.121094 322.984375 163.800781 323.371094 162.449219 323.695312 C 163.769531 323.339844 165.121094 322.984375 166.472656 322.628906 Z M 162.03125 323.824219 C 160.613281 324.175781 159.226562 324.53125 157.84375 324.886719 C 159.226562 324.53125 160.644531 324.175781 162.03125 323.824219 Z M 157.652344 324.949219 C 156.234375 325.304688 154.816406 325.628906 153.367188 325.980469 C 154.785156 325.660156 156.203125 325.304688 157.652344 324.949219 Z M 152.980469 326.078125 C 151.628906 326.398438 150.277344 326.691406 148.925781 326.980469 C 150.277344 326.691406 151.628906 326.398438 152.980469 326.078125 Z M 148.570312 327.078125 C 147.1875 327.367188 145.832031 327.65625 144.449219 327.945312 C 145.800781 327.65625 147.1875 327.398438 148.570312 327.078125 Z M 144.222656 327.980469 C 142.804688 328.269531 141.421875 328.527344 140.039062 328.785156 C 141.421875 328.527344 142.839844 328.269531 144.222656 327.980469 Z M 139.683594 328.847656 C 138.363281 329.105469 137.074219 329.332031 135.785156 329.558594 C 137.074219 329.332031 138.394531 329.105469 139.683594 328.847656 Z M 135.304688 329.621094 C 133.984375 329.847656 132.632812 330.074219 131.3125 330.265625 C 132.632812 330.074219 133.953125 329.847656 135.304688 329.621094 Z M 131.117188 330.296875 C 129.734375 330.523438 128.382812 330.71875 126.996094 330.910156 C 128.347656 330.71875 129.734375 330.523438 131.117188 330.296875 Z M 126.707031 330.941406 C 125.417969 331.136719 124.128906 331.296875 122.875 331.457031 C 124.164062 331.296875 125.417969 331.136719 126.707031 330.941406 Z M 122.425781 331.492188 C 121.136719 331.652344 119.878906 331.8125 118.59375 331.941406 C 119.847656 331.8125 121.136719 331.652344 122.425781 331.492188 Z M 118.335938 331.972656 C 116.980469 332.136719 115.660156 332.265625 114.308594 332.359375 C 115.628906 332.230469 116.980469 332.101562 118.335938 331.972656 Z M 114.148438 332.394531 C 112.859375 332.523438 111.574219 332.617188 110.285156 332.714844 C 111.574219 332.617188 112.859375 332.523438 114.148438 332.394531 Z M 109.960938 332.746094 C 109.0625 332.8125 108.160156 332.875 107.289062 332.941406 C 117.144531 343.058594 128.765625 351.464844 141.582031 357.585938 C 156.492188 364.707031 173.042969 368.703125 190.269531 368.703125 C 210.265625 368.703125 229.296875 363.324219 245.976562 353.980469 C 281.78125 333.875 306.605469 295.375 306.605469 252.296875 L 306.605469 250.394531 C 360.445312 205.933594 387.332031 154 369.65625 117.527344 C 356.808594 91.011719 322.902344 77.929688 279.078125 78.476562 C 302.871094 83.148438 320.902344 94.234375 329.308594 111.535156 C 350.945312 156.125 300.488281 225.296875 216.707031 265.957031 C 132.890625 306.648438 47.398438 303.460938 25.761719 258.871094 C 17.355469 241.570312 19.835938 220.5625 30.878906 198.941406 C 3.316406 233.03125 -7.40625 267.761719 5.472656 294.277344 C 19.675781 323.566406 59.503906 336.453125 109.996094 332.714844 Z M 109.960938 332.746094 " fill-opacity="1" fill-rule="evenodd"/></g><path fill="#1089b8" d="M 107.257812 332.941406 C 192.394531 329.140625 258.628906 306.070312 305.996094 263.765625 C 306.382812 259.996094 306.574219 256.164062 306.574219 252.296875 L 306.574219 250.394531 C 285.515625 267.792969 260.304688 284.03125 232.03125 297.757812 C 188.5 318.894531 144.804688 330.589844 107.257812 332.941406 Z M 107.257812 332.941406 " fill-opacity="1" fill-rule="evenodd"/></svg>