<svg xmlns="http://www.w3.org/2000/svg" xmlns:xlink="http://www.w3.org/1999/xlink" width="500" zoomAndPan="magnify" viewBox="0 0 375 374.999991" height="500" preserveAspectRatio="xMidYMid meet" version="1.0"><defs><g/><clipPath id="8a24acae43"><path d="M 152 96.722656 L 222 96.722656 L 222 183 L 152 183 Z M 152 96.722656 " clip-rule="nonzero"/></clipPath><clipPath id="7328ed08e8"><path d="M 129.175781 119 L 246.175781 119 L 246.175781 209.222656 L 129.175781 209.222656 Z M 129.175781 119 " clip-rule="nonzero"/></clipPath></defs><g clip-path="url(#8a24acae43)"><path fill="#1089b8" d="M 221.421875 153.945312 C 214.007812 132.894531 196.417969 108.484375 188.53125 96.746094 C 178.394531 111.824219 152.234375 147.851562 152.234375 170.761719 L 152.234375 173.054688 C 152.234375 175.894531 152.585938 178.667969 153.238281 181.335938 C 154.332031 181.566406 155.425781 181.738281 156.503906 181.859375 C 154.230469 172.59375 155.777344 161.527344 161.144531 148.652344 C 157.789062 161.566406 156.695312 172.683594 157.847656 181.988281 C 158.53125 182.046875 159.207031 182.089844 159.847656 182.109375 C 171.652344 182.546875 184.460938 178.765625 194.992188 173.675781 C 204.574219 169.042969 214.460938 162.269531 221.414062 153.925781 Z M 221.421875 153.945312 " fill-opacity="1" fill-rule="evenodd"/></g><g clip-path="url(#7328ed08e8)"><path fill="#00afef" d="M 224.816406 172.472656 C 224.464844 172.761719 224.105469 173.054688 223.742188 173.34375 C 224.105469 173.054688 224.464844 172.761719 224.816406 172.472656 Z M 223.703125 173.382812 C 223.339844 173.675781 222.96875 173.964844 222.597656 174.253906 C 222.96875 173.964844 223.339844 173.675781 223.703125 173.382812 Z M 222.578125 174.265625 C 222.207031 174.554688 221.824219 174.84375 221.441406 175.132812 C 221.824219 174.84375 222.207031 174.554688 222.578125 174.265625 Z M 221.421875 175.144531 C 221.039062 175.433594 220.660156 175.714844 220.265625 176.003906 C 220.660156 175.726562 221.039062 175.433594 221.421875 175.144531 Z M 220.238281 176.023438 C 219.855469 176.304688 219.464844 176.585938 219.070312 176.867188 C 219.464844 176.585938 219.855469 176.304688 220.238281 176.023438 Z M 219.050781 176.886719 C 218.660156 177.164062 218.257812 177.445312 217.867188 177.726562 C 218.269531 177.445312 218.660156 177.164062 219.050781 176.886719 Z M 217.804688 177.757812 C 217 178.316406 216.179688 178.867188 215.34375 179.40625 C 216.179688 178.867188 217 178.304688 217.804688 177.757812 Z M 215.34375 179.40625 L 215.304688 179.4375 C 214.882812 179.707031 214.46875 179.976562 214.039062 180.246094 C 213.617188 180.515625 213.195312 180.777344 212.761719 181.046875 C 213.195312 180.789062 213.617188 180.515625 214.039062 180.246094 Z M 212.703125 181.085938 C 212.269531 181.347656 211.847656 181.617188 211.40625 181.867188 C 211.839844 181.609375 212.269531 181.347656 212.703125 181.085938 Z M 211.394531 181.878906 C 210.964844 182.136719 210.523438 182.398438 210.078125 182.660156 C 210.523438 182.398438 210.964844 182.136719 211.394531 181.878906 Z M 210.039062 182.679688 C 209.597656 182.9375 209.15625 183.1875 208.703125 183.449219 C 209.15625 183.199219 209.597656 182.9375 210.039062 182.679688 Z M 208.671875 183.457031 C 208.222656 183.707031 207.769531 183.957031 207.316406 184.210938 C 207.769531 183.957031 208.222656 183.707031 208.671875 183.457031 Z M 207.296875 184.230469 C 206.835938 184.480469 206.382812 184.730469 205.910156 184.980469 C 206.371094 184.730469 206.835938 184.488281 207.296875 184.230469 Z M 205.890625 184.988281 C 205.4375 185.230469 204.976562 185.46875 204.515625 185.710938 C 204.976562 185.46875 205.4375 185.230469 205.890625 184.988281 Z M 204.464844 185.738281 C 204 185.980469 203.539062 186.210938 203.078125 186.441406 C 203.539062 186.210938 204.011719 185.96875 204.464844 185.738281 Z M 203.007812 186.480469 C 202.535156 186.71875 202.0625 186.949219 201.582031 187.179688 C 201.109375 187.410156 200.636719 187.628906 200.164062 187.851562 C 200.636719 187.628906 201.109375 187.402344 201.582031 187.179688 C 202.0625 186.949219 202.535156 186.71875 203.007812 186.480469 Z M 200.035156 187.910156 C 199.589844 188.121094 199.148438 188.320312 198.707031 188.519531 C 199.148438 188.320312 199.589844 188.121094 200.035156 187.910156 Z M 198.578125 188.582031 C 198.113281 188.792969 197.652344 188.992188 197.191406 189.191406 C 197.652344 188.992188 198.113281 188.78125 198.578125 188.582031 Z M 197.148438 189.210938 C 196.679688 189.421875 196.207031 189.621094 195.722656 189.820312 C 196.195312 189.621094 196.667969 189.421875 197.148438 189.210938 Z M 195.644531 189.863281 C 195.191406 190.050781 194.75 190.230469 194.296875 190.421875 C 194.75 190.242188 195.191406 190.050781 195.644531 189.863281 Z M 194.167969 190.472656 C 193.714844 190.652344 193.273438 190.832031 192.820312 191.011719 C 193.273438 190.832031 193.714844 190.652344 194.167969 190.472656 Z M 192.738281 191.042969 C 192.277344 191.222656 191.804688 191.402344 191.34375 191.582031 C 191.804688 191.402344 192.277344 191.222656 192.738281 191.042969 Z M 191.242188 191.613281 C 190.800781 191.78125 190.359375 191.941406 189.917969 192.101562 C 190.359375 191.941406 190.800781 191.78125 191.242188 191.613281 Z M 189.777344 192.152344 C 189.335938 192.3125 188.902344 192.464844 188.460938 192.625 C 188.890625 192.472656 189.335938 192.3125 189.777344 192.152344 Z M 188.347656 192.664062 C 187.886719 192.824219 187.425781 192.984375 186.964844 193.132812 C 187.425781 192.984375 187.886719 192.824219 188.347656 192.664062 Z M 186.902344 193.152344 C 186.460938 193.304688 186.007812 193.445312 185.566406 193.59375 C 186.007812 193.453125 186.460938 193.304688 186.902344 193.152344 Z M 185.417969 193.632812 C 184.984375 193.773438 184.550781 193.902344 184.121094 194.035156 C 184.550781 193.902344 184.984375 193.761719 185.417969 193.632812 Z M 184.03125 194.0625 C 183.566406 194.203125 183.117188 194.34375 182.652344 194.472656 C 183.117188 194.34375 183.566406 194.203125 184.03125 194.0625 Z M 182.613281 194.484375 C 182.171875 194.613281 181.730469 194.734375 181.277344 194.863281 C 181.71875 194.742188 182.160156 194.613281 182.613281 194.484375 Z M 181.117188 194.902344 C 180.695312 195.015625 180.28125 195.132812 179.859375 195.234375 C 180.273438 195.125 180.695312 195.015625 181.117188 194.902344 Z M 179.730469 195.273438 C 179.289062 195.382812 178.855469 195.496094 178.421875 195.605469 C 178.855469 195.496094 179.296875 195.382812 179.730469 195.273438 Z M 178.363281 195.625 C 177.921875 195.734375 177.480469 195.835938 177.027344 195.945312 C 177.46875 195.84375 177.910156 195.734375 178.363281 195.625 Z M 176.90625 195.976562 C 176.484375 196.074219 176.0625 196.164062 175.640625 196.253906 C 176.0625 196.164062 176.484375 196.074219 176.90625 195.976562 Z M 175.53125 196.285156 C 175.097656 196.375 174.675781 196.464844 174.246094 196.554688 C 174.667969 196.464844 175.097656 196.386719 175.53125 196.285156 Z M 174.175781 196.566406 C 173.730469 196.65625 173.300781 196.734375 172.867188 196.816406 C 173.300781 196.734375 173.742188 196.65625 174.175781 196.566406 Z M 172.757812 196.835938 C 172.347656 196.914062 171.945312 196.984375 171.542969 197.054688 C 171.945312 196.984375 172.355469 196.914062 172.757812 196.835938 Z M 171.390625 197.074219 C 170.980469 197.144531 170.558594 197.214844 170.144531 197.273438 C 170.558594 197.214844 170.96875 197.144531 171.390625 197.074219 Z M 170.085938 197.285156 C 169.652344 197.355469 169.230469 197.414062 168.800781 197.476562 C 169.222656 197.414062 169.652344 197.355469 170.085938 197.285156 Z M 168.707031 197.484375 C 168.308594 197.546875 167.90625 197.59375 167.511719 197.644531 C 167.914062 197.59375 168.308594 197.546875 168.707031 197.484375 Z M 167.371094 197.65625 C 166.972656 197.707031 166.578125 197.753906 166.175781 197.796875 C 166.570312 197.753906 166.972656 197.707031 167.371094 197.65625 Z M 166.097656 197.804688 C 165.675781 197.855469 165.261719 197.894531 164.839844 197.925781 C 165.253906 197.886719 165.675781 197.84375 166.097656 197.804688 Z M 164.789062 197.9375 C 164.390625 197.976562 163.988281 198.003906 163.585938 198.035156 C 163.988281 198.003906 164.390625 197.976562 164.789062 197.9375 Z M 163.484375 198.046875 C 163.203125 198.066406 162.921875 198.085938 162.652344 198.105469 C 165.726562 201.246094 169.351562 203.859375 173.351562 205.757812 C 178 207.96875 183.164062 209.210938 188.539062 209.210938 C 194.777344 209.210938 200.714844 207.539062 205.921875 204.640625 C 217.09375 198.394531 224.839844 186.441406 224.839844 173.0625 L 224.839844 172.472656 C 241.636719 158.667969 250.023438 142.539062 244.507812 131.214844 C 240.5 122.980469 229.921875 118.917969 216.25 119.089844 C 223.671875 120.539062 229.296875 123.980469 231.921875 129.351562 C 238.671875 143.199219 222.929688 164.679688 196.789062 177.304688 C 170.636719 189.941406 143.964844 188.953125 137.214844 175.105469 C 134.589844 169.730469 135.363281 163.210938 138.8125 156.496094 C 130.210938 167.082031 126.867188 177.867188 130.882812 186.101562 C 135.316406 195.195312 147.742188 199.195312 163.496094 198.035156 Z M 163.484375 198.046875 " fill-opacity="1" fill-rule="evenodd"/></g><path fill="#1089b8" d="M 162.640625 198.105469 C 189.203125 196.925781 209.867188 189.761719 224.648438 176.625 C 224.769531 175.453125 224.828125 174.265625 224.828125 173.0625 L 224.828125 172.472656 C 218.257812 177.875 210.390625 182.917969 201.570312 187.179688 C 187.988281 193.742188 174.355469 197.375 162.640625 198.105469 Z M 162.640625 198.105469 " fill-opacity="1" fill-rule="evenodd"/><g fill="#545454" fill-opacity="1"><g transform="translate(146.614314, 253.822975)"><g><path d="M 24.671875 -26.875 C 24.671875 -26.363281 24.414062 -26.109375 23.90625 -26.109375 L 9.375 -26.109375 C 9.195312 -26.109375 9.109375 -26.019531 9.109375 -25.84375 L 9.109375 -18.9375 C 9.109375 -18.757812 9.195312 -18.671875 9.375 -18.671875 L 18.796875 -18.671875 C 19.316406 -18.671875 19.578125 -18.414062 19.578125 -17.90625 L 19.578125 -13.984375 C 19.578125 -13.472656 19.316406 -13.21875 18.796875 -13.21875 L 9.375 -13.21875 C 9.195312 -13.21875 9.109375 -13.125 9.109375 -12.9375 L 9.109375 -5.734375 C 9.109375 -5.546875 9.195312 -5.453125 9.375 -5.453125 L 23.90625 -5.453125 C 24.414062 -5.453125 24.671875 -5.195312 24.671875 -4.6875 L 24.671875 -0.765625 C 24.671875 -0.253906 24.414062 0 23.90625 0 L 3.515625 0 C 3.003906 0 2.75 -0.253906 2.75 -0.765625 L 2.75 -30.796875 C 2.75 -31.304688 3.003906 -31.5625 3.515625 -31.5625 L 23.90625 -31.5625 C 24.414062 -31.5625 24.671875 -31.304688 24.671875 -30.796875 Z M 24.671875 -26.875 "/></g></g></g><g fill="#545454" fill-opacity="1"><g transform="translate(172.95301, 253.822975)"><g><path d="M 13.84375 0.359375 C 11.5 0.359375 9.4375 -0.0976562 7.65625 -1.015625 C 5.882812 -1.929688 4.519531 -3.210938 3.5625 -4.859375 C 2.601562 -6.515625 2.125 -8.425781 2.125 -10.59375 L 2.125 -21.015625 C 2.125 -23.179688 2.601562 -25.085938 3.5625 -26.734375 C 4.519531 -28.390625 5.882812 -29.664062 7.65625 -30.5625 C 9.4375 -31.46875 11.5 -31.921875 13.84375 -31.921875 C 16.15625 -31.921875 18.191406 -31.492188 19.953125 -30.640625 C 21.710938 -29.785156 23.078125 -28.566406 24.046875 -26.984375 C 25.023438 -25.410156 25.515625 -23.585938 25.515625 -21.515625 C 25.515625 -21.242188 25.273438 -21.078125 24.796875 -21.015625 L 19.96875 -20.703125 L 19.796875 -20.703125 C 19.378906 -20.703125 19.171875 -20.773438 19.171875 -20.921875 L 19.171875 -21.1875 C 19.171875 -22.78125 18.679688 -24.054688 17.703125 -25.015625 C 16.722656 -25.984375 15.4375 -26.46875 13.84375 -26.46875 C 12.21875 -26.46875 10.914062 -25.984375 9.9375 -25.015625 C 8.96875 -24.054688 8.484375 -22.78125 8.484375 -21.1875 L 8.484375 -10.328125 C 8.484375 -8.765625 8.96875 -7.5 9.9375 -6.53125 C 10.914062 -5.570312 12.21875 -5.09375 13.84375 -5.09375 C 15.4375 -5.09375 16.722656 -5.570312 17.703125 -6.53125 C 18.679688 -7.5 19.171875 -8.765625 19.171875 -10.328125 C 19.171875 -10.472656 19.238281 -10.597656 19.375 -10.703125 C 19.507812 -10.816406 19.695312 -10.859375 19.9375 -10.828125 L 24.75 -10.59375 C 25.257812 -10.53125 25.515625 -10.457031 25.515625 -10.375 L 25.515625 -10.140625 C 25.515625 -8.066406 25.023438 -6.234375 24.046875 -4.640625 C 23.078125 -3.046875 21.710938 -1.8125 19.953125 -0.9375 C 18.191406 -0.0703125 16.15625 0.359375 13.84375 0.359375 Z M 13.84375 0.359375 "/></g></g></g><g fill="#545454" fill-opacity="1"><g transform="translate(200.37412, 253.822975)"><g><path d="M 13.984375 0.5 C 11.640625 0.5 9.570312 0.0195312 7.78125 -0.9375 C 5.988281 -1.90625 4.597656 -3.253906 3.609375 -4.984375 C 2.617188 -6.710938 2.125 -8.703125 2.125 -10.953125 L 2.125 -20.609375 C 2.125 -22.828125 2.617188 -24.789062 3.609375 -26.5 C 4.597656 -28.21875 5.988281 -29.550781 7.78125 -30.5 C 9.570312 -31.445312 11.640625 -31.921875 13.984375 -31.921875 C 16.359375 -31.921875 18.4375 -31.445312 20.21875 -30.5 C 22.007812 -29.550781 23.398438 -28.21875 24.390625 -26.5 C 25.390625 -24.789062 25.890625 -22.828125 25.890625 -20.609375 L 25.890625 -10.953125 C 25.890625 -8.703125 25.390625 -6.703125 24.390625 -4.953125 C 23.398438 -3.210938 22.007812 -1.867188 20.21875 -0.921875 C 18.4375 0.0234375 16.359375 0.5 13.984375 0.5 Z M 13.984375 -4.953125 C 15.628906 -4.953125 16.960938 -5.476562 17.984375 -6.53125 C 19.015625 -7.582031 19.53125 -8.984375 19.53125 -10.734375 L 19.53125 -20.65625 C 19.53125 -22.394531 19.023438 -23.796875 18.015625 -24.859375 C 17.003906 -25.929688 15.660156 -26.46875 13.984375 -26.46875 C 12.328125 -26.46875 10.992188 -25.929688 9.984375 -24.859375 C 8.984375 -23.796875 8.484375 -22.394531 8.484375 -20.65625 L 8.484375 -10.734375 C 8.484375 -8.984375 8.984375 -7.582031 9.984375 -6.53125 C 10.992188 -5.476562 12.328125 -4.953125 13.984375 -4.953125 Z M 13.984375 -4.953125 "/></g></g></g><g fill="#545454" fill-opacity="1"><g transform="translate(139.50179, 274.794474)"><g><path d="M 6.921875 -7.796875 C 6.921875 -7.660156 6.851562 -7.59375 6.71875 -7.59375 L 2.46875 -7.59375 C 2.414062 -7.59375 2.390625 -7.566406 2.390625 -7.515625 L 2.390625 -5.171875 C 2.390625 -5.117188 2.414062 -5.09375 2.46875 -5.09375 L 5.296875 -5.09375 C 5.429688 -5.09375 5.5 -5.023438 5.5 -4.890625 L 5.5 -4.03125 C 5.5 -3.894531 5.429688 -3.828125 5.296875 -3.828125 L 2.46875 -3.828125 C 2.414062 -3.828125 2.390625 -3.804688 2.390625 -3.765625 L 2.390625 -1.34375 C 2.390625 -1.289062 2.414062 -1.265625 2.46875 -1.265625 L 6.71875 -1.265625 C 6.851562 -1.265625 6.921875 -1.195312 6.921875 -1.0625 L 6.921875 -0.203125 C 6.921875 -0.0664062 6.851562 0 6.71875 0 L 1.125 0 C 0.988281 0 0.921875 -0.0664062 0.921875 -0.203125 L 0.921875 -8.65625 C 0.921875 -8.789062 0.988281 -8.859375 1.125 -8.859375 L 6.71875 -8.859375 C 6.851562 -8.859375 6.921875 -8.789062 6.921875 -8.65625 Z M 6.921875 -7.796875 "/></g></g></g><g fill="#545454" fill-opacity="1"><g transform="translate(149.632813, 274.794474)"><g><path d="M 3.890625 0.09375 C 3.253906 0.09375 2.695312 -0.0234375 2.21875 -0.265625 C 1.738281 -0.515625 1.363281 -0.863281 1.09375 -1.3125 C 0.832031 -1.757812 0.703125 -2.28125 0.703125 -2.875 L 0.703125 -6 C 0.703125 -6.59375 0.832031 -7.109375 1.09375 -7.546875 C 1.363281 -7.992188 1.738281 -8.335938 2.21875 -8.578125 C 2.695312 -8.828125 3.253906 -8.953125 3.890625 -8.953125 C 4.515625 -8.953125 5.066406 -8.832031 5.546875 -8.59375 C 6.023438 -8.363281 6.394531 -8.03125 6.65625 -7.59375 C 6.914062 -7.164062 7.046875 -6.671875 7.046875 -6.109375 C 7.046875 -6.023438 6.984375 -5.976562 6.859375 -5.96875 L 5.78125 -5.890625 L 5.734375 -5.890625 C 5.628906 -5.890625 5.578125 -5.914062 5.578125 -5.96875 L 5.578125 -6.03125 C 5.578125 -6.53125 5.421875 -6.929688 5.109375 -7.234375 C 4.804688 -7.535156 4.398438 -7.6875 3.890625 -7.6875 C 3.367188 -7.6875 2.953125 -7.535156 2.640625 -7.234375 C 2.328125 -6.929688 2.171875 -6.53125 2.171875 -6.03125 L 2.171875 -2.8125 C 2.171875 -2.320312 2.328125 -1.925781 2.640625 -1.625 C 2.953125 -1.320312 3.367188 -1.171875 3.890625 -1.171875 C 4.398438 -1.171875 4.804688 -1.316406 5.109375 -1.609375 C 5.421875 -1.910156 5.578125 -2.3125 5.578125 -2.8125 C 5.578125 -2.851562 5.59375 -2.890625 5.625 -2.921875 C 5.664062 -2.953125 5.71875 -2.960938 5.78125 -2.953125 L 6.84375 -2.890625 C 6.976562 -2.878906 7.046875 -2.859375 7.046875 -2.828125 L 7.046875 -2.765625 C 7.046875 -2.191406 6.914062 -1.6875 6.65625 -1.25 C 6.394531 -0.820312 6.023438 -0.488281 5.546875 -0.25 C 5.066406 -0.0195312 4.515625 0.09375 3.890625 0.09375 Z M 3.890625 0.09375 "/></g></g></g><g fill="#545454" fill-opacity="1"><g transform="translate(159.966157, 274.794474)"><g><path d="M 3.921875 0.125 C 3.285156 0.125 2.722656 0 2.234375 -0.25 C 1.742188 -0.507812 1.363281 -0.875 1.09375 -1.34375 C 0.832031 -1.820312 0.703125 -2.367188 0.703125 -2.984375 L 0.703125 -5.875 C 0.703125 -6.476562 0.835938 -7.015625 1.109375 -7.484375 C 1.378906 -7.953125 1.753906 -8.3125 2.234375 -8.5625 C 2.722656 -8.820312 3.285156 -8.953125 3.921875 -8.953125 C 4.566406 -8.953125 5.128906 -8.820312 5.609375 -8.5625 C 6.097656 -8.3125 6.476562 -7.953125 6.75 -7.484375 C 7.019531 -7.015625 7.15625 -6.476562 7.15625 -5.875 L 7.15625 -2.984375 C 7.15625 -2.367188 7.019531 -1.820312 6.75 -1.34375 C 6.476562 -0.875 6.097656 -0.507812 5.609375 -0.25 C 5.128906 0 4.566406 0.125 3.921875 0.125 Z M 3.921875 -1.140625 C 4.453125 -1.140625 4.878906 -1.300781 5.203125 -1.625 C 5.523438 -1.957031 5.6875 -2.394531 5.6875 -2.9375 L 5.6875 -5.890625 C 5.6875 -6.429688 5.523438 -6.863281 5.203125 -7.1875 C 4.878906 -7.519531 4.453125 -7.6875 3.921875 -7.6875 C 3.398438 -7.6875 2.976562 -7.519531 2.65625 -7.1875 C 2.332031 -6.863281 2.171875 -6.429688 2.171875 -5.890625 L 2.171875 -2.9375 C 2.171875 -2.394531 2.332031 -1.957031 2.65625 -1.625 C 2.976562 -1.300781 3.398438 -1.140625 3.921875 -1.140625 Z M 3.921875 -1.140625 "/></g></g></g><g fill="#545454" fill-opacity="1"><g transform="translate(170.46387, 274.794474)"><g><path d="M 1.125 0 C 0.988281 0 0.921875 -0.0664062 0.921875 -0.203125 L 0.921875 -8.65625 C 0.921875 -8.789062 0.988281 -8.859375 1.125 -8.859375 L 2.1875 -8.859375 C 2.320312 -8.859375 2.390625 -8.789062 2.390625 -8.65625 L 2.390625 -1.34375 C 2.390625 -1.289062 2.414062 -1.265625 2.46875 -1.265625 L 6.640625 -1.265625 C 6.773438 -1.265625 6.84375 -1.195312 6.84375 -1.0625 L 6.84375 -0.203125 C 6.84375 -0.0664062 6.773438 0 6.640625 0 Z M 1.125 0 "/></g></g></g><g fill="#545454" fill-opacity="1"><g transform="translate(180.329369, 274.794474)"><g><path d="M 3.921875 0.125 C 3.285156 0.125 2.722656 0 2.234375 -0.25 C 1.742188 -0.507812 1.363281 -0.875 1.09375 -1.34375 C 0.832031 -1.820312 0.703125 -2.367188 0.703125 -2.984375 L 0.703125 -5.875 C 0.703125 -6.476562 0.835938 -7.015625 1.109375 -7.484375 C 1.378906 -7.953125 1.753906 -8.3125 2.234375 -8.5625 C 2.722656 -8.820312 3.285156 -8.953125 3.921875 -8.953125 C 4.566406 -8.953125 5.128906 -8.820312 5.609375 -8.5625 C 6.097656 -8.3125 6.476562 -7.953125 6.75 -7.484375 C 7.019531 -7.015625 7.15625 -6.476562 7.15625 -5.875 L 7.15625 -2.984375 C 7.15625 -2.367188 7.019531 -1.820312 6.75 -1.34375 C 6.476562 -0.875 6.097656 -0.507812 5.609375 -0.25 C 5.128906 0 4.566406 0.125 3.921875 0.125 Z M 3.921875 -1.140625 C 4.453125 -1.140625 4.878906 -1.300781 5.203125 -1.625 C 5.523438 -1.957031 5.6875 -2.394531 5.6875 -2.9375 L 5.6875 -5.890625 C 5.6875 -6.429688 5.523438 -6.863281 5.203125 -7.1875 C 4.878906 -7.519531 4.453125 -7.6875 3.921875 -7.6875 C 3.398438 -7.6875 2.976562 -7.519531 2.65625 -7.1875 C 2.332031 -6.863281 2.171875 -6.429688 2.171875 -5.890625 L 2.171875 -2.9375 C 2.171875 -2.394531 2.332031 -1.957031 2.65625 -1.625 C 2.976562 -1.300781 3.398438 -1.140625 3.921875 -1.140625 Z M 3.921875 -1.140625 "/></g></g></g><g fill="#545454" fill-opacity="1"><g transform="translate(190.827085, 274.794474)"><g><path d="M 3.890625 0.09375 C 3.253906 0.09375 2.695312 -0.0234375 2.21875 -0.265625 C 1.738281 -0.515625 1.363281 -0.867188 1.09375 -1.328125 C 0.832031 -1.785156 0.703125 -2.304688 0.703125 -2.890625 L 0.703125 -5.96875 C 0.703125 -6.5625 0.832031 -7.082031 1.09375 -7.53125 C 1.363281 -7.988281 1.738281 -8.335938 2.21875 -8.578125 C 2.695312 -8.828125 3.253906 -8.953125 3.890625 -8.953125 C 4.515625 -8.953125 5.0625 -8.828125 5.53125 -8.578125 C 6.007812 -8.335938 6.378906 -8.003906 6.640625 -7.578125 C 6.898438 -7.160156 7.03125 -6.6875 7.03125 -6.15625 L 7.03125 -6.109375 C 7.03125 -5.972656 6.960938 -5.90625 6.828125 -5.90625 L 5.78125 -5.90625 C 5.71875 -5.90625 5.664062 -5.914062 5.625 -5.9375 C 5.59375 -5.957031 5.578125 -5.988281 5.578125 -6.03125 L 5.578125 -6.125 C 5.578125 -6.582031 5.421875 -6.957031 5.109375 -7.25 C 4.804688 -7.539062 4.398438 -7.6875 3.890625 -7.6875 C 3.367188 -7.6875 2.953125 -7.53125 2.640625 -7.21875 C 2.328125 -6.914062 2.171875 -6.515625 2.171875 -6.015625 L 2.171875 -2.84375 C 2.171875 -2.34375 2.332031 -1.9375 2.65625 -1.625 C 2.988281 -1.320312 3.421875 -1.171875 3.953125 -1.171875 C 4.453125 -1.171875 4.847656 -1.300781 5.140625 -1.5625 C 5.429688 -1.832031 5.578125 -2.195312 5.578125 -2.65625 L 5.578125 -3.4375 C 5.578125 -3.476562 5.550781 -3.5 5.5 -3.5 L 4.015625 -3.5 C 3.878906 -3.5 3.8125 -3.566406 3.8125 -3.703125 L 3.8125 -4.546875 C 3.8125 -4.679688 3.878906 -4.75 4.015625 -4.75 L 6.828125 -4.75 C 6.960938 -4.75 7.03125 -4.679688 7.03125 -4.546875 L 7.03125 -2.96875 C 7.03125 -2 6.742188 -1.242188 6.171875 -0.703125 C 5.609375 -0.171875 4.847656 0.09375 3.890625 0.09375 Z M 3.890625 0.09375 "/></g></g></g><g fill="#545454" fill-opacity="1"><g transform="translate(201.135138, 274.794474)"><g><path d="M 1.125 0 C 0.988281 0 0.921875 -0.0664062 0.921875 -0.203125 L 0.921875 -8.65625 C 0.921875 -8.789062 0.988281 -8.859375 1.125 -8.859375 L 2.1875 -8.859375 C 2.320312 -8.859375 2.390625 -8.789062 2.390625 -8.65625 L 2.390625 -0.203125 C 2.390625 -0.0664062 2.320312 0 2.1875 0 Z M 1.125 0 "/></g></g></g><g fill="#545454" fill-opacity="1"><g transform="translate(207.093487, 274.794474)"><g><path d="M 3.890625 0.09375 C 3.253906 0.09375 2.695312 -0.0234375 2.21875 -0.265625 C 1.738281 -0.515625 1.363281 -0.863281 1.09375 -1.3125 C 0.832031 -1.757812 0.703125 -2.28125 0.703125 -2.875 L 0.703125 -6 C 0.703125 -6.59375 0.832031 -7.109375 1.09375 -7.546875 C 1.363281 -7.992188 1.738281 -8.335938 2.21875 -8.578125 C 2.695312 -8.828125 3.253906 -8.953125 3.890625 -8.953125 C 4.515625 -8.953125 5.066406 -8.832031 5.546875 -8.59375 C 6.023438 -8.363281 6.394531 -8.03125 6.65625 -7.59375 C 6.914062 -7.164062 7.046875 -6.671875 7.046875 -6.109375 C 7.046875 -6.023438 6.984375 -5.976562 6.859375 -5.96875 L 5.78125 -5.890625 L 5.734375 -5.890625 C 5.628906 -5.890625 5.578125 -5.914062 5.578125 -5.96875 L 5.578125 -6.03125 C 5.578125 -6.53125 5.421875 -6.929688 5.109375 -7.234375 C 4.804688 -7.535156 4.398438 -7.6875 3.890625 -7.6875 C 3.367188 -7.6875 2.953125 -7.535156 2.640625 -7.234375 C 2.328125 -6.929688 2.171875 -6.53125 2.171875 -6.03125 L 2.171875 -2.8125 C 2.171875 -2.320312 2.328125 -1.925781 2.640625 -1.625 C 2.953125 -1.320312 3.367188 -1.171875 3.890625 -1.171875 C 4.398438 -1.171875 4.804688 -1.316406 5.109375 -1.609375 C 5.421875 -1.910156 5.578125 -2.3125 5.578125 -2.8125 C 5.578125 -2.851562 5.59375 -2.890625 5.625 -2.921875 C 5.664062 -2.953125 5.71875 -2.960938 5.78125 -2.953125 L 6.84375 -2.890625 C 6.976562 -2.878906 7.046875 -2.859375 7.046875 -2.828125 L 7.046875 -2.765625 C 7.046875 -2.191406 6.914062 -1.6875 6.65625 -1.25 C 6.394531 -0.820312 6.023438 -0.488281 5.546875 -0.25 C 5.066406 -0.0195312 4.515625 0.09375 3.890625 0.09375 Z M 3.890625 0.09375 "/></g></g></g><g fill="#545454" fill-opacity="1"><g transform="translate(217.426832, 274.794474)"><g><path d="M 6.46875 0 C 6.351562 0 6.273438 -0.0546875 6.234375 -0.171875 L 5.84375 -1.46875 C 5.832031 -1.507812 5.804688 -1.53125 5.765625 -1.53125 L 2.4375 -1.53125 C 2.382812 -1.53125 2.359375 -1.507812 2.359375 -1.46875 L 1.96875 -0.171875 C 1.925781 -0.0546875 1.847656 0 1.734375 0 L 0.578125 0 C 0.515625 0 0.46875 -0.0195312 0.4375 -0.0625 C 0.40625 -0.101562 0.398438 -0.160156 0.421875 -0.234375 L 3.125 -8.6875 C 3.15625 -8.800781 3.234375 -8.859375 3.359375 -8.859375 L 4.828125 -8.859375 C 4.953125 -8.859375 5.03125 -8.800781 5.0625 -8.6875 L 7.78125 -0.234375 C 7.789062 -0.210938 7.796875 -0.1875 7.796875 -0.15625 C 7.796875 -0.0507812 7.738281 0 7.625 0 Z M 2.75 -2.765625 C 2.738281 -2.710938 2.757812 -2.6875 2.8125 -2.6875 L 5.390625 -2.6875 C 5.441406 -2.6875 5.460938 -2.710938 5.453125 -2.765625 L 4.15625 -7.078125 C 4.144531 -7.109375 4.128906 -7.125 4.109375 -7.125 C 4.085938 -7.125 4.066406 -7.109375 4.046875 -7.078125 Z M 2.75 -2.765625 "/></g></g></g><g fill="#545454" fill-opacity="1"><g transform="translate(228.265948, 274.794474)"><g><path d="M 1.125 0 C 0.988281 0 0.921875 -0.0664062 0.921875 -0.203125 L 0.921875 -8.65625 C 0.921875 -8.789062 0.988281 -8.859375 1.125 -8.859375 L 2.1875 -8.859375 C 2.320312 -8.859375 2.390625 -8.789062 2.390625 -8.65625 L 2.390625 -1.34375 C 2.390625 -1.289062 2.414062 -1.265625 2.46875 -1.265625 L 6.640625 -1.265625 C 6.773438 -1.265625 6.84375 -1.195312 6.84375 -1.0625 L 6.84375 -0.203125 C 6.84375 -0.0664062 6.773438 0 6.640625 0 Z M 1.125 0 "/></g></g></g><g fill="#545454" fill-opacity="1"><g transform="translate(133.701009, 292.044473)"><g><path d="M 3.921875 0.125 C 3.285156 0.125 2.722656 0 2.234375 -0.25 C 1.742188 -0.507812 1.363281 -0.875 1.09375 -1.34375 C 0.832031 -1.820312 0.703125 -2.367188 0.703125 -2.984375 L 0.703125 -5.875 C 0.703125 -6.476562 0.835938 -7.015625 1.109375 -7.484375 C 1.378906 -7.953125 1.753906 -8.3125 2.234375 -8.5625 C 2.722656 -8.820312 3.285156 -8.953125 3.921875 -8.953125 C 4.566406 -8.953125 5.128906 -8.820312 5.609375 -8.5625 C 6.097656 -8.3125 6.476562 -7.953125 6.75 -7.484375 C 7.019531 -7.015625 7.15625 -6.476562 7.15625 -5.875 L 7.15625 -2.984375 C 7.15625 -2.367188 7.019531 -1.820312 6.75 -1.34375 C 6.476562 -0.875 6.097656 -0.507812 5.609375 -0.25 C 5.128906 0 4.566406 0.125 3.921875 0.125 Z M 3.921875 -1.140625 C 4.453125 -1.140625 4.878906 -1.300781 5.203125 -1.625 C 5.523438 -1.957031 5.6875 -2.394531 5.6875 -2.9375 L 5.6875 -5.890625 C 5.6875 -6.429688 5.523438 -6.863281 5.203125 -7.1875 C 4.878906 -7.519531 4.453125 -7.6875 3.921875 -7.6875 C 3.398438 -7.6875 2.976562 -7.519531 2.65625 -7.1875 C 2.332031 -6.863281 2.171875 -6.429688 2.171875 -5.890625 L 2.171875 -2.9375 C 2.171875 -2.394531 2.332031 -1.957031 2.65625 -1.625 C 2.976562 -1.300781 3.398438 -1.140625 3.921875 -1.140625 Z M 3.921875 -1.140625 "/></g></g></g><g fill="#545454" fill-opacity="1"><g transform="translate(144.198724, 292.044473)"><g><path d="M 3.890625 0.09375 C 3.253906 0.09375 2.695312 -0.0234375 2.21875 -0.265625 C 1.738281 -0.515625 1.363281 -0.863281 1.09375 -1.3125 C 0.832031 -1.757812 0.703125 -2.28125 0.703125 -2.875 L 0.703125 -6 C 0.703125 -6.59375 0.832031 -7.109375 1.09375 -7.546875 C 1.363281 -7.992188 1.738281 -8.335938 2.21875 -8.578125 C 2.695312 -8.828125 3.253906 -8.953125 3.890625 -8.953125 C 4.515625 -8.953125 5.066406 -8.832031 5.546875 -8.59375 C 6.023438 -8.363281 6.394531 -8.03125 6.65625 -7.59375 C 6.914062 -7.164062 7.046875 -6.671875 7.046875 -6.109375 C 7.046875 -6.023438 6.984375 -5.976562 6.859375 -5.96875 L 5.78125 -5.890625 L 5.734375 -5.890625 C 5.628906 -5.890625 5.578125 -5.914062 5.578125 -5.96875 L 5.578125 -6.03125 C 5.578125 -6.53125 5.421875 -6.929688 5.109375 -7.234375 C 4.804688 -7.535156 4.398438 -7.6875 3.890625 -7.6875 C 3.367188 -7.6875 2.953125 -7.535156 2.640625 -7.234375 C 2.328125 -6.929688 2.171875 -6.53125 2.171875 -6.03125 L 2.171875 -2.8125 C 2.171875 -2.320312 2.328125 -1.925781 2.640625 -1.625 C 2.953125 -1.320312 3.367188 -1.171875 3.890625 -1.171875 C 4.398438 -1.171875 4.804688 -1.316406 5.109375 -1.609375 C 5.421875 -1.910156 5.578125 -2.3125 5.578125 -2.8125 C 5.578125 -2.851562 5.59375 -2.890625 5.625 -2.921875 C 5.664062 -2.953125 5.71875 -2.960938 5.78125 -2.953125 L 6.84375 -2.890625 C 6.976562 -2.878906 7.046875 -2.859375 7.046875 -2.828125 L 7.046875 -2.765625 C 7.046875 -2.191406 6.914062 -1.6875 6.65625 -1.25 C 6.394531 -0.820312 6.023438 -0.488281 5.546875 -0.25 C 5.066406 -0.0195312 4.515625 0.09375 3.890625 0.09375 Z M 3.890625 0.09375 "/></g></g></g><g fill="#545454" fill-opacity="1"><g transform="translate(154.532067, 292.044473)"><g><path d="M 6.921875 -7.796875 C 6.921875 -7.660156 6.851562 -7.59375 6.71875 -7.59375 L 2.46875 -7.59375 C 2.414062 -7.59375 2.390625 -7.566406 2.390625 -7.515625 L 2.390625 -5.171875 C 2.390625 -5.117188 2.414062 -5.09375 2.46875 -5.09375 L 5.296875 -5.09375 C 5.429688 -5.09375 5.5 -5.023438 5.5 -4.890625 L 5.5 -4.03125 C 5.5 -3.894531 5.429688 -3.828125 5.296875 -3.828125 L 2.46875 -3.828125 C 2.414062 -3.828125 2.390625 -3.804688 2.390625 -3.765625 L 2.390625 -1.34375 C 2.390625 -1.289062 2.414062 -1.265625 2.46875 -1.265625 L 6.71875 -1.265625 C 6.851562 -1.265625 6.921875 -1.195312 6.921875 -1.0625 L 6.921875 -0.203125 C 6.921875 -0.0664062 6.851562 0 6.71875 0 L 1.125 0 C 0.988281 0 0.921875 -0.0664062 0.921875 -0.203125 L 0.921875 -8.65625 C 0.921875 -8.789062 0.988281 -8.859375 1.125 -8.859375 L 6.71875 -8.859375 C 6.851562 -8.859375 6.921875 -8.789062 6.921875 -8.65625 Z M 6.921875 -7.796875 "/></g></g></g><g fill="#545454" fill-opacity="1"><g transform="translate(164.663089, 292.044473)"><g><path d="M 6.46875 0 C 6.351562 0 6.273438 -0.0546875 6.234375 -0.171875 L 5.84375 -1.46875 C 5.832031 -1.507812 5.804688 -1.53125 5.765625 -1.53125 L 2.4375 -1.53125 C 2.382812 -1.53125 2.359375 -1.507812 2.359375 -1.46875 L 1.96875 -0.171875 C 1.925781 -0.0546875 1.847656 0 1.734375 0 L 0.578125 0 C 0.515625 0 0.46875 -0.0195312 0.4375 -0.0625 C 0.40625 -0.101562 0.398438 -0.160156 0.421875 -0.234375 L 3.125 -8.6875 C 3.15625 -8.800781 3.234375 -8.859375 3.359375 -8.859375 L 4.828125 -8.859375 C 4.953125 -8.859375 5.03125 -8.800781 5.0625 -8.6875 L 7.78125 -0.234375 C 7.789062 -0.210938 7.796875 -0.1875 7.796875 -0.15625 C 7.796875 -0.0507812 7.738281 0 7.625 0 Z M 2.75 -2.765625 C 2.738281 -2.710938 2.757812 -2.6875 2.8125 -2.6875 L 5.390625 -2.6875 C 5.441406 -2.6875 5.460938 -2.710938 5.453125 -2.765625 L 4.15625 -7.078125 C 4.144531 -7.109375 4.128906 -7.125 4.109375 -7.125 C 4.085938 -7.125 4.066406 -7.109375 4.046875 -7.078125 Z M 2.75 -2.765625 "/></g></g></g><g fill="#545454" fill-opacity="1"><g transform="translate(175.502205, 292.044473)"><g><path d="M 1.125 0 C 0.988281 0 0.921875 -0.0664062 0.921875 -0.203125 L 0.921875 -8.65625 C 0.921875 -8.789062 0.988281 -8.859375 1.125 -8.859375 L 2.140625 -8.859375 C 2.253906 -8.859375 2.335938 -8.8125 2.390625 -8.71875 L 5.9375 -2.921875 C 5.957031 -2.890625 5.976562 -2.875 6 -2.875 C 6.019531 -2.882812 6.03125 -2.910156 6.03125 -2.953125 L 6.03125 -8.65625 C 6.03125 -8.789062 6.097656 -8.859375 6.234375 -8.859375 L 7.296875 -8.859375 C 7.429688 -8.859375 7.5 -8.789062 7.5 -8.65625 L 7.5 -0.203125 C 7.5 -0.0664062 7.429688 0 7.296875 0 L 6.25 0 C 6.132812 0 6.050781 -0.046875 6 -0.140625 L 2.453125 -5.96875 C 2.441406 -6.007812 2.421875 -6.023438 2.390625 -6.015625 C 2.367188 -6.003906 2.359375 -5.984375 2.359375 -5.953125 L 2.375 -0.203125 C 2.375 -0.0664062 2.304688 0 2.171875 0 Z M 1.125 0 "/></g></g></g><g fill="#545454" fill-opacity="1"><g transform="translate(186.54363, 292.044473)"><g/></g></g><g fill="#545454" fill-opacity="1"><g transform="translate(191.718025, 292.044473)"><g><path d="M 3.890625 0.09375 C 3.253906 0.09375 2.695312 -0.0234375 2.21875 -0.265625 C 1.738281 -0.515625 1.363281 -0.863281 1.09375 -1.3125 C 0.832031 -1.757812 0.703125 -2.28125 0.703125 -2.875 L 0.703125 -6 C 0.703125 -6.59375 0.832031 -7.109375 1.09375 -7.546875 C 1.363281 -7.992188 1.738281 -8.335938 2.21875 -8.578125 C 2.695312 -8.828125 3.253906 -8.953125 3.890625 -8.953125 C 4.515625 -8.953125 5.066406 -8.832031 5.546875 -8.59375 C 6.023438 -8.363281 6.394531 -8.03125 6.65625 -7.59375 C 6.914062 -7.164062 7.046875 -6.671875 7.046875 -6.109375 C 7.046875 -6.023438 6.984375 -5.976562 6.859375 -5.96875 L 5.78125 -5.890625 L 5.734375 -5.890625 C 5.628906 -5.890625 5.578125 -5.914062 5.578125 -5.96875 L 5.578125 -6.03125 C 5.578125 -6.53125 5.421875 -6.929688 5.109375 -7.234375 C 4.804688 -7.535156 4.398438 -7.6875 3.890625 -7.6875 C 3.367188 -7.6875 2.953125 -7.535156 2.640625 -7.234375 C 2.328125 -6.929688 2.171875 -6.53125 2.171875 -6.03125 L 2.171875 -2.8125 C 2.171875 -2.320312 2.328125 -1.925781 2.640625 -1.625 C 2.953125 -1.320312 3.367188 -1.171875 3.890625 -1.171875 C 4.398438 -1.171875 4.804688 -1.316406 5.109375 -1.609375 C 5.421875 -1.910156 5.578125 -2.3125 5.578125 -2.8125 C 5.578125 -2.851562 5.59375 -2.890625 5.625 -2.921875 C 5.664062 -2.953125 5.71875 -2.960938 5.78125 -2.953125 L 6.84375 -2.890625 C 6.976562 -2.878906 7.046875 -2.859375 7.046875 -2.828125 L 7.046875 -2.765625 C 7.046875 -2.191406 6.914062 -1.6875 6.65625 -1.25 C 6.394531 -0.820312 6.023438 -0.488281 5.546875 -0.25 C 5.066406 -0.0195312 4.515625 0.09375 3.890625 0.09375 Z M 3.890625 0.09375 "/></g></g></g><g fill="#545454" fill-opacity="1"><g transform="translate(202.051369, 292.044473)"><g><path d="M 1.125 0 C 0.988281 0 0.921875 -0.0664062 0.921875 -0.203125 L 0.921875 -8.65625 C 0.921875 -8.789062 0.988281 -8.859375 1.125 -8.859375 L 2.1875 -8.859375 C 2.320312 -8.859375 2.390625 -8.789062 2.390625 -8.65625 L 2.390625 -1.34375 C 2.390625 -1.289062 2.414062 -1.265625 2.46875 -1.265625 L 6.640625 -1.265625 C 6.773438 -1.265625 6.84375 -1.195312 6.84375 -1.0625 L 6.84375 -0.203125 C 6.84375 -0.0664062 6.773438 0 6.640625 0 Z M 1.125 0 "/></g></g></g><g fill="#545454" fill-opacity="1"><g transform="translate(211.916868, 292.044473)"><g><path d="M 6.921875 -7.796875 C 6.921875 -7.660156 6.851562 -7.59375 6.71875 -7.59375 L 2.46875 -7.59375 C 2.414062 -7.59375 2.390625 -7.566406 2.390625 -7.515625 L 2.390625 -5.171875 C 2.390625 -5.117188 2.414062 -5.09375 2.46875 -5.09375 L 5.296875 -5.09375 C 5.429688 -5.09375 5.5 -5.023438 5.5 -4.890625 L 5.5 -4.03125 C 5.5 -3.894531 5.429688 -3.828125 5.296875 -3.828125 L 2.46875 -3.828125 C 2.414062 -3.828125 2.390625 -3.804688 2.390625 -3.765625 L 2.390625 -1.34375 C 2.390625 -1.289062 2.414062 -1.265625 2.46875 -1.265625 L 6.71875 -1.265625 C 6.851562 -1.265625 6.921875 -1.195312 6.921875 -1.0625 L 6.921875 -0.203125 C 6.921875 -0.0664062 6.851562 0 6.71875 0 L 1.125 0 C 0.988281 0 0.921875 -0.0664062 0.921875 -0.203125 L 0.921875 -8.65625 C 0.921875 -8.789062 0.988281 -8.859375 1.125 -8.859375 L 6.71875 -8.859375 C 6.851562 -8.859375 6.921875 -8.789062 6.921875 -8.65625 Z M 6.921875 -7.796875 "/></g></g></g><g fill="#545454" fill-opacity="1"><g transform="translate(222.047893, 292.044473)"><g><path d="M 6.46875 0 C 6.351562 0 6.273438 -0.0546875 6.234375 -0.171875 L 5.84375 -1.46875 C 5.832031 -1.507812 5.804688 -1.53125 5.765625 -1.53125 L 2.4375 -1.53125 C 2.382812 -1.53125 2.359375 -1.507812 2.359375 -1.46875 L 1.96875 -0.171875 C 1.925781 -0.0546875 1.847656 0 1.734375 0 L 0.578125 0 C 0.515625 0 0.46875 -0.0195312 0.4375 -0.0625 C 0.40625 -0.101562 0.398438 -0.160156 0.421875 -0.234375 L 3.125 -8.6875 C 3.15625 -8.800781 3.234375 -8.859375 3.359375 -8.859375 L 4.828125 -8.859375 C 4.953125 -8.859375 5.03125 -8.800781 5.0625 -8.6875 L 7.78125 -0.234375 C 7.789062 -0.210938 7.796875 -0.1875 7.796875 -0.15625 C 7.796875 -0.0507812 7.738281 0 7.625 0 Z M 2.75 -2.765625 C 2.738281 -2.710938 2.757812 -2.6875 2.8125 -2.6875 L 5.390625 -2.6875 C 5.441406 -2.6875 5.460938 -2.710938 5.453125 -2.765625 L 4.15625 -7.078125 C 4.144531 -7.109375 4.128906 -7.125 4.109375 -7.125 C 4.085938 -7.125 4.066406 -7.109375 4.046875 -7.078125 Z M 2.75 -2.765625 "/></g></g></g><g fill="#545454" fill-opacity="1"><g transform="translate(232.887004, 292.044473)"><g><path d="M 1.125 0 C 0.988281 0 0.921875 -0.0664062 0.921875 -0.203125 L 0.921875 -8.65625 C 0.921875 -8.789062 0.988281 -8.859375 1.125 -8.859375 L 2.140625 -8.859375 C 2.253906 -8.859375 2.335938 -8.8125 2.390625 -8.71875 L 5.9375 -2.921875 C 5.957031 -2.890625 5.976562 -2.875 6 -2.875 C 6.019531 -2.882812 6.03125 -2.910156 6.03125 -2.953125 L 6.03125 -8.65625 C 6.03125 -8.789062 6.097656 -8.859375 6.234375 -8.859375 L 7.296875 -8.859375 C 7.429688 -8.859375 7.5 -8.789062 7.5 -8.65625 L 7.5 -0.203125 C 7.5 -0.0664062 7.429688 0 7.296875 0 L 6.25 0 C 6.132812 0 6.050781 -0.046875 6 -0.140625 L 2.453125 -5.96875 C 2.441406 -6.007812 2.421875 -6.023438 2.390625 -6.015625 C 2.367188 -6.003906 2.359375 -5.984375 2.359375 -5.953125 L 2.375 -0.203125 C 2.375 -0.0664062 2.304688 0 2.171875 0 Z M 1.125 0 "/></g></g></g></svg>